<?xml version="1.0" encoding="UTF-8"?>
<svg version="1.1" xmlns="http://www.w3.org/2000/svg" width="2000" height="2000">
<path d="M0 0 C12.38416932 6.75500145 12.38416932 6.75500145 17.28515625 9.55859375 C18.37908691 10.18386963 19.47301758 10.80914551 20.60009766 11.45336914 C21.74269043 12.10813232 22.8852832 12.76289551 24.0625 13.4375 C25.2921337 14.1412318 26.52178909 14.84492568 27.75146484 15.54858398 C39.11088594 22.05195756 50.44893155 28.59233639 61.78222656 35.14111328 C67.18670645 38.26324605 72.59347412 41.38141204 78 44.5 C80.1666775 45.74998122 82.33334417 46.99998121 84.5 48.25 C85.5725 48.86875 86.645 49.4875 87.75 50.125 C117 67 146.25 83.875 175.5 100.75 C176.57266113 101.36883057 177.64532227 101.98766113 178.75048828 102.62524414 C180.91557071 103.87435518 183.08060982 105.12354129 185.24560547 106.37280273 C190.68615706 109.51202309 196.12747216 112.64990563 201.5703125 115.78515625 C212.02206316 121.80747396 222.46290267 127.84685089 232.875 133.9375 C244.81936263 140.92116713 256.83058298 147.78498838 268.85212708 154.63456726 C273.8896963 157.5062804 278.92384613 160.38397646 283.95825195 163.26123047 C284.92677345 163.81471664 285.89529495 164.36820282 286.89316559 164.9384613 C289.26213024 166.2922728 291.63107457 167.64611986 294 169 C294.00173625 169.68714807 294.0034725 170.37429613 294.00526136 171.08226687 C294.10826792 211.79951472 294.21637573 252.51674625 294.33111694 293.23396281 C294.34488668 298.12187679 294.35861375 303.0097909 294.37231445 307.89770508 C294.37504276 308.87080932 294.37777106 309.84391356 294.38058204 310.84650581 C294.42466862 326.60716183 294.4652983 342.36782497 294.50465261 358.12849344 C294.54510437 374.29788557 294.58926603 390.4672645 294.63687855 406.63663715 C294.66614574 416.61565217 294.69251201 426.59466622 294.71517897 436.57369845 C294.73099524 443.41475777 294.75041194 450.25580093 294.77266841 457.0968423 C294.78540651 461.04495312 294.79654898 464.9930516 294.80341911 468.94117737 C294.80974548 472.55667531 294.82059932 476.17213052 294.8350333 479.78760492 C294.84154836 481.71306012 294.84323658 483.63852979 294.84474558 485.56399542 C294.87135763 491.15199721 295.01923251 496.4960503 296 502 C296.117679 503.42139851 296.21523649 504.84479819 296.28125 506.26953125 C296.31790771 507.00743896 296.35456543 507.74534668 296.39233398 508.50561523 C296.42786377 509.26688721 296.46339355 510.02815918 296.5 510.8125 C296.8310738 517.23584792 297.27984264 523.60749211 298 530 C298.33749093 533.12456045 298.66914604 536.24973052 299 539.375 C299.13220947 540.61999268 299.13220947 540.61999268 299.26708984 541.89013672 C299.84360238 547.36862827 300.34492847 552.84858148 300.78515625 558.33984375 C301.00833309 561.10317881 301.24475581 563.86443593 301.5 566.625 C301.5721875 567.42164063 301.644375 568.21828125 301.71875 569.0390625 C301.90525505 571.07359228 301.90525505 571.07359228 303 573 C303.30869938 575.29809536 303.50883648 577.59720129 303.71875 579.90625 C303.892155 582.05443933 303.892155 582.05443933 305 584 C305.30869938 586.29809536 305.50883648 588.59720129 305.71875 590.90625 C305.892155 593.05443933 305.892155 593.05443933 307 595 C307.31120284 597.55877893 307.50964666 600.11851612 307.71875 602.6875 C307.87136047 605.02268455 307.87136047 605.02268455 309 607 C309.24017569 608.33185572 309.43839499 609.67143712 309.61328125 611.01342773 C309.72470459 611.84060806 309.83612793 612.66778839 309.95092773 613.52003479 C310.12990601 614.86943398 310.12990601 614.86943398 310.3125 616.24609375 C311.87442764 627.58488597 313.89253124 638.81442919 316 650.0625 C316.69161743 653.76096638 317.37966454 657.46005801 318.0625 661.16015625 C318.22782227 662.05505768 318.39314453 662.94995911 318.56347656 663.87197876 C319.89135898 671.16765979 321.02119182 678.48562887 322.04907227 685.82936096 C322.57195603 690.04272415 322.57195603 690.04272415 324 694 C324.31045526 696.59143905 324.50973912 699.18371732 324.71875 701.78515625 C324.7665741 703.97070668 324.7665741 703.97070668 326 705 C326.07226502 706.85287502 326.0838122 708.70833878 326.0625 710.5625 C326.04896484 712.08037109 326.04896484 712.08037109 326.03515625 713.62890625 C326.01775391 714.80259766 326.01775391 714.80259766 326 716 C326.66 716.33 327.32 716.66 328 717 C328.51560486 719.84211459 328.90864269 722.63499876 329.25 725.5 C330.51885212 735.2499907 332.20083896 744.8999122 334 754.5625 C335.90500376 764.81344236 337.72747567 775.05931397 339.15039062 785.39086914 C339.64551291 789.31717673 339.64551291 789.31717673 341 793 C341.27535948 794.57881181 341.50870703 796.16508545 341.71875 797.75390625 C341.91017578 799.15866211 341.91017578 799.15866211 342.10546875 800.59179688 C342.36899938 802.57610424 342.63201826 804.56047963 342.89453125 806.54492188 C343.02214844 807.48013672 343.14976562 808.41535156 343.28125 809.37890625 C343.39533203 810.2407251 343.50941406 811.10254395 343.62695312 811.99047852 C343.80215013 813.99087237 343.80215013 813.99087237 345 815 C345.20956883 816.78715644 345.36811616 818.58043769 345.5 820.375 C345.73236344 823.52020509 345.99875969 825.99627907 347 829 C347.30126699 830.55022933 347.57525059 832.1058467 347.83203125 833.6640625 C347.98889404 834.61007324 348.14575684 835.55608398 348.30737305 836.53076172 C348.47406494 837.55186035 348.64075684 838.57295898 348.8125 839.625 C348.98628174 840.67574707 349.16006348 841.72649414 349.33911133 842.80908203 C350.28687766 848.56207048 351.21135827 854.31838834 352.1171875 860.078125 C352.29660889 861.21556152 352.47603027 862.35299805 352.66088867 863.52490234 C353.00799545 865.73306149 353.35198281 867.94171357 353.69262695 870.15087891 C353.84948975 871.15038574 354.00635254 872.14989258 354.16796875 873.1796875 C354.30485107 874.06382324 354.4417334 874.94795898 354.58276367 875.85888672 C354.90869148 878.04061526 354.90869148 878.04061526 356 880 C356.31045526 882.59143905 356.50973912 885.18371732 356.71875 887.78515625 C356.7665741 889.97070668 356.7665741 889.97070668 358 891 C358.20896317 892.80811184 358.36780361 894.62216032 358.5 896.4375 C358.71419183 900.36434915 358.71419183 900.36434915 360 904 C360.30869938 906.29809536 360.50883648 908.59720129 360.71875 910.90625 C360.892155 913.05443933 360.892155 913.05443933 362 915 C362.42578234 917.87326497 362.81450351 920.74478791 363.1875 923.625 C364.57408126 933.86737083 366.45061672 943.99566661 368.39935303 954.14172363 C370.19664936 963.51308364 371.85422362 972.88387529 373.15039062 982.34008789 C373.64163716 986.29249868 373.64163716 986.29249868 375 990 C375.07033769 991.87379605 375.0843022 993.75001102 375.0625 995.625 C375.04896484 997.12933594 375.04896484 997.12933594 375.03515625 998.6640625 C375.01775391 999.82035156 375.01775391 999.82035156 375 1001 C375.66 1001 376.32 1001 377 1001 C377.06058594 1001.77085937 377.12117188 1002.54171875 377.18359375 1003.3359375 C377.30927734 1004.84027344 377.30927734 1004.84027344 377.4375 1006.375 C377.51871094 1007.37273438 377.59992188 1008.37046875 377.68359375 1009.3984375 C377.84965626 1011.97927613 377.84965626 1011.97927613 379 1014 C379.48432624 1016.75207514 379.92792189 1019.49915315 380.34375 1022.26171875 C380.61166249 1023.99923506 380.87990431 1025.73670061 381.1484375 1027.47412109 C381.28797852 1028.38272888 381.42751953 1029.29133667 381.57128906 1030.22747803 C382.6962168 1037.50251252 383.87774198 1044.76872468 385.05224609 1052.03588867 C385.35215576 1053.89568836 385.65064539 1055.75571756 385.94775391 1057.6159668 C387.5315394 1067.52804069 389.16627069 1077.381129 391.40576172 1087.16967773 C392.23017232 1091.09629732 392.60105247 1095.01052474 393 1099 C393.33 1099.66 393.66 1100.32 394 1101 C394.31045526 1103.59143905 394.50973912 1106.18371732 394.71875 1108.78515625 C394.7665741 1110.97070668 394.7665741 1110.97070668 396 1112 C396.20904433 1113.62009359 396.36785857 1115.24682881 396.5 1116.875 C396.74279416 1119.84922849 397.05025071 1122.15075214 398 1125 C398.46143607 1127.60621869 398.89453574 1130.20992171 399.3046875 1132.82421875 C399.4293338 1133.60328079 399.5539801 1134.38234283 399.68240356 1135.18501282 C400.08232803 1137.6854674 400.47901359 1140.18641895 400.875 1142.6875 C402.56802968 1153.37223364 404.32495227 1164.03003703 406.36816406 1174.65405273 C408.2288484 1184.5074835 408.2288484 1184.5074835 407 1188 C402.57346637 1193.34210725 397.64234238 1197.76564717 391 1200 C391 1200.66 391 1201.32 391 1202 C388.8828125 1203.9453125 388.8828125 1203.9453125 386.125 1206.125 C385.22007812 1206.84945313 384.31515625 1207.57390625 383.3828125 1208.3203125 C381 1210 381 1210 379 1210 C379 1210.66 379 1211.32 379 1212 C378.34 1212 377.68 1212 377 1212 C377 1212.66 377 1213.32 377 1214 C375.35546875 1215.47265625 375.35546875 1215.47265625 373.1875 1217.0625 C372.47980469 1217.58972656 371.77210938 1218.11695313 371.04296875 1218.66015625 C369 1220 369 1220 366 1221 C365.67 1221.99 365.34 1222.98 365 1224 C363.5390625 1225.2890625 363.5390625 1225.2890625 361.625 1226.625 C353.03254294 1232.82637834 344.90616473 1239.71919389 337.0078125 1246.78125 C333.160665 1250.2073889 329.29250058 1253.13833294 325 1256 C324.175 1256.825 323.35 1257.65 322.5 1258.5 C319.86485459 1261.13514541 317.09378955 1262.93747363 314 1265 C312.33054394 1266.6638726 310.66422467 1268.33089491 309 1270 C307.1442416 1271.60584252 305.26820915 1273.18848517 303.375 1274.75 C302.59177368 1275.39787476 302.59177368 1275.39787476 301.79272461 1276.05883789 C298.39437497 1278.86608096 294.97845573 1281.65172058 291.5625 1284.4375 C286.33513676 1288.70272537 281.18385205 1293.05330051 276.04296875 1297.421875 C275.03878906 1298.27265625 274.03460937 1299.1234375 273 1300 C272.45553223 1300.47501953 271.91106445 1300.95003906 271.35009766 1301.43945312 C267.21740946 1305 267.21740946 1305 265 1305 C265 1305.66 265 1306.32 265 1307 C261.53846154 1310 261.53846154 1310 259 1310 C259 1310.66 259 1311.32 259 1312 C257.48828125 1313.33984375 257.48828125 1313.33984375 255.3125 1314.9375 C251.30332037 1317.96483972 247.44353444 1321.11424171 243.625 1324.375 C238.61751906 1328.64288076 233.5580002 1332.83768524 228.44921875 1336.984375 C226.23890728 1338.80338731 224.08356524 1340.66865274 221.9375 1342.5625 C219 1345 219 1345 217 1345 C216.67 1345.99 216.34 1346.98 216 1348 C214.5390625 1349.2890625 214.5390625 1349.2890625 212.625 1350.625 C204.29832767 1356.6444594 196.53288525 1363.37892408 188.71630859 1370.03808594 C184.86802268 1373.30294814 180.93963679 1376.43493669 176.90234375 1379.46484375 C174.78021396 1381.17736327 172.91122115 1383.05712301 171 1385 C167.35714286 1388 167.35714286 1388 165 1388 C164.814375 1388.556875 164.62875 1389.11375 164.4375 1389.6875 C162.35889174 1393.03134807 159.39186398 1395.04807828 156 1397 C155.34 1397 154.68 1397 154 1397 C153.79375 1397.598125 153.5875 1398.19625 153.375 1398.8125 C151.49073918 1401.81018767 149.18867916 1402.61361776 146 1404 C145.79286377 1402.27148804 145.79286377 1402.27148804 145.58154297 1400.50805664 C145.05194712 1396.27738586 144.39707605 1392.07619298 143.6953125 1387.87109375 C143.5706662 1387.11893082 143.4460199 1386.36676788 143.31759644 1385.59181213 C143.05451295 1384.00760451 142.79059541 1382.42353518 142.52587891 1380.83959961 C142.13016007 1378.46841955 141.73874764 1376.09655646 141.34765625 1373.72460938 C139.92622399 1365.1635862 138.38060079 1356.64735788 136.60742188 1348.15185547 C135.82886664 1344.11200495 135.41599775 1340.09064457 135 1336 C134.67 1335.34 134.34 1334.68 134 1334 C133.69130062 1331.70190464 133.49116352 1329.40279871 133.28125 1327.09375 C133.107845 1324.94556067 133.107845 1324.94556067 132 1323 C131.7724985 1321.12943209 131.59037189 1319.25314042 131.4375 1317.375 C131.35371094 1316.37210938 131.26992188 1315.36921875 131.18359375 1314.3359375 C131.12300781 1313.56507812 131.06242188 1312.79421875 131 1312 C127.21761881 1312 126.12489534 1313.14103538 123.125 1315.375 C119.83558375 1317.81942859 116.87012437 1319.62673006 113 1321 C113 1321.66 113 1322.32 113 1323 C110.8828125 1324.5078125 110.8828125 1324.5078125 108.125 1326.125 C107.22007812 1326.66382813 106.31515625 1327.20265625 105.3828125 1327.7578125 C103 1329 103 1329 101 1329 C100.67 1329.99 100.34 1330.98 100 1332 C97.890625 1333.46484375 97.890625 1333.46484375 95.25 1334.9375 C91.55175601 1337.06647497 88.30201138 1339.29065733 85 1342 C82.75920264 1343.5442199 80.49347669 1345.04532531 78.21875 1346.5390625 C76.31443801 1347.79295807 74.4379462 1349.07873571 72.5625 1350.375 C70 1352 70 1352 68 1352 C68.020625 1351.21625 68.04125 1350.4325 68.0625 1349.625 C68.18684063 1347.01885039 68.18684063 1347.01885039 67 1345 C66.93004485 1342.52970861 67.00270463 1340.07576482 67.0625 1337.60546875 C67.07670716 1335.03196031 67.07670716 1335.03196031 66.53125 1332.68359375 C65.82166407 1329.09914132 65.67769089 1325.51564405 65.5 1321.875 C65.19627366 1316.19640215 64.80476706 1310.54707641 64.25 1304.88671875 C63.81505902 1299.86450957 63.55975183 1294.82980086 63.28125 1289.796875 C63.01190431 1286.16070816 62.52024309 1282.60701873 62 1279 C62 1276.66666667 62 1274.33333333 62 1272 C61.505 1270.515 61.505 1270.515 61 1269 C61.4375 1266.3125 61.4375 1266.3125 62 1264 C54.05331871 1267.86369524 46.35217975 1271.99906582 38.75 1276.5 C37.73728027 1277.09441895 36.72456055 1277.68883789 35.68115234 1278.30126953 C31.31449688 1280.86455475 26.95346257 1283.43732318 22.59277344 1286.01074219 C19.27217286 1287.96889892 15.94865707 1289.92203721 12.625 1291.875 C11.59084961 1292.48794922 10.55669922 1293.10089844 9.49121094 1293.73242188 C8.53762695 1294.29251953 7.58404297 1294.85261719 6.6015625 1295.4296875 C5.33820068 1296.17581299 5.33820068 1296.17581299 4.04931641 1296.93701172 C2 1298 2 1298 0 1298 C0 869.66 0 441.32 0 0 Z " fill="#FDD600" transform="translate(356,531)"/>
<path d="M0 0 C0.81275391 0.2980957 1.62550781 0.59619141 2.46289062 0.90332031 C3.82837036 1.4017041 3.82837036 1.4017041 5.22143555 1.91015625 C6.17767822 2.26368164 7.1339209 2.61720703 8.11914062 2.98144531 C9.10438721 3.34270508 10.08963379 3.70396484 11.10473633 4.07617188 C17.36253366 6.37753584 23.59621945 8.73318012 29.81054688 11.14941406 C34.38821933 12.9129958 39.00333175 14.5708386 43.61914062 16.23144531 C49.20525087 18.24652618 54.77811895 20.28919782 60.33032227 22.39624023 C66.30562038 24.66085747 72.29144811 26.81949834 78.36914062 28.79394531 C83.85351196 30.59341511 89.14403751 32.6354383 94.44726562 34.90722656 C102.99244184 38.4747324 111.71777375 41.68822721 120.52783203 44.53588867 C126.04520001 46.37093202 131.44795615 48.54764187 136.85644531 50.6784668 C144.16947112 53.55515083 151.51263141 56.30041033 158.93237305 58.88867188 C171.9109205 63.41721688 184.83120571 68.11252618 197.64257812 73.09472656 C201.99666286 74.75750695 206.39020531 76.30389207 210.78320312 77.86035156 C215.87670815 79.67223351 220.944072 81.55483514 226.01464844 83.4296875 C232.33228249 85.76331853 238.66186217 88.06289395 244.99414062 90.35644531 C251.96270827 92.88254357 258.90200494 95.46325796 265.81054688 98.14941406 C270.38823286 99.91300101 275.00349403 101.57035716 279.61914062 103.23144531 C289.63459398 106.85608558 299.6264596 110.54461386 309.61914062 114.23144531 C308.80743286 118.26437328 307.48780992 119.48505539 304.18164062 121.98144531 C303.281875 122.67367187 302.38210938 123.36589844 301.45507812 124.07910156 C300.51921875 124.789375 299.58335937 125.49964844 298.61914062 126.23144531 C292.0210156 131.35084809 292.0210156 131.35084809 285.86914062 136.98144531 C283.34501854 139.5055674 280.58190742 141.25626745 277.61914062 143.23144531 C276.95914063 144.22144531 276.29914062 145.21144531 275.61914062 146.23144531 C278.34605873 147.6940119 281.07605943 149.15073073 283.80664062 150.60644531 C284.57556641 151.01894531 285.34449219 151.43144531 286.13671875 151.85644531 C289.90576817 153.86229135 293.61069221 155.73976522 297.61914062 157.23144531 C302.28869491 159.18277366 306.78885088 161.27510905 311.18164062 163.79394531 C314.59677004 165.73867178 317.96065843 167.18513936 321.65820312 168.49316406 C328.29511329 170.99192108 334.46153966 174.75354106 340.61914062 178.23144531 C340.61914062 178.89144531 340.61914062 179.55144531 340.61914062 180.23144531 C339.07226563 181.45800781 339.07226563 181.45800781 336.86914062 182.85644531 C336.04800781 183.38625 335.226875 183.91605469 334.38085938 184.46191406 C333.46949219 185.04585937 332.558125 185.62980469 331.61914062 186.23144531 C329.63707142 187.53955792 327.65800127 188.8522238 325.68164062 190.16894531 C324.67488281 190.83796875 323.668125 191.50699219 322.63085938 192.19628906 C318.8955054 194.72043876 315.22998228 197.3355601 311.58007812 199.98144531 C309.61914062 201.23144531 309.61914062 201.23144531 307.61914062 201.23144531 C308.93922874 205.19170965 310.45910228 205.55919069 314.06835938 207.56738281 C315.21723633 208.21384766 316.36611328 208.8603125 317.54980469 209.52636719 C318.80207464 210.21974227 320.05435346 210.91310132 321.30664062 211.60644531 C323.21490997 212.6762569 325.121205 213.74952465 327.02731323 214.82318115 C328.31999929 215.55124501 329.61323738 216.27832953 330.90701294 217.00445557 C337.11348485 220.49257272 343.24850931 224.09464503 349.36914062 227.73144531 C350.30846436 228.28880371 351.24778809 228.84616211 352.21557617 229.42041016 C354.35118642 230.68894119 356.48579578 231.95910945 358.61914062 233.23144531 C357.35086337 237.03627708 356.18792893 237.34129349 352.74804688 239.27832031 C351.71212402 239.86814697 350.67620117 240.45797363 349.60888672 241.06567383 C347.9123999 242.01398071 347.9123999 242.01398071 346.18164062 242.98144531 C345.00221582 243.64966298 343.82335004 244.31886822 342.64501953 244.98901367 C340.19244349 246.38279378 337.73750184 247.77226509 335.28076172 249.15869141 C329.6636162 252.33285911 324.08006123 255.56525355 318.49414062 258.79394531 C316.8785022 259.72557495 316.8785022 259.72557495 315.23022461 260.67602539 C308.05371284 264.8157611 300.8953265 268.98564994 293.74414062 273.16894531 C284.47414285 278.59065709 275.1608231 283.93349447 265.83068848 289.25067139 C256.70631223 294.4518966 247.61781288 299.71172409 238.55224609 305.01489258 C228.02829438 311.16911273 217.46533925 317.25514527 206.90136719 323.34033203 C201.4725412 326.4682468 196.04594781 329.60002979 190.61914062 332.73144531 C188.4524848 333.9814641 186.28581813 335.2314641 184.11914062 336.48144531 C183.04664063 337.10019531 181.97414063 337.71894531 180.86914062 338.35644531 C-10.88085938 448.98144531 -10.88085938 448.98144531 -14.13134766 450.85668945 C-16.29643008 452.10580049 -18.4614692 453.35498661 -20.62646484 454.60424805 C-26.06701643 457.74346841 -31.50833153 460.88135094 -36.95117188 464.01660156 C-47.40292137 470.0389186 -57.84385485 476.07813868 -68.25585938 482.16894531 C-77.52585715 487.59065709 -86.8391769 492.93349447 -96.16931152 498.25067139 C-105.29368777 503.4518966 -114.38218712 508.71172409 -123.44775391 514.01489258 C-133.97170562 520.16911273 -144.53466075 526.25514527 -155.09863281 532.34033203 C-160.5274588 535.4682468 -165.95405219 538.60002979 -171.38085938 541.73144531 C-173.5475152 542.9814641 -175.71418187 544.2314641 -177.88085938 545.48144531 C-179.48960937 546.40957031 -179.48960937 546.40957031 -181.13085938 547.35644531 C-372.88085937 657.98144531 -372.88085937 657.98144531 -376.13134766 659.85668945 C-378.29643008 661.10580049 -380.4614692 662.35498661 -382.62646484 663.60424805 C-388.06701643 666.74346841 -393.50833153 669.88135094 -398.95117188 673.01660156 C-409.40292137 679.0389186 -419.84385485 685.07813868 -430.25585938 691.16894531 C-439.52585715 696.59065709 -448.8391769 701.93349447 -458.16931152 707.25067139 C-467.29368777 712.4518966 -476.38218712 717.71172409 -485.44775391 723.01489258 C-495.94394601 729.1528794 -506.47899275 735.22292222 -517.01513672 741.29199219 C-520.52979188 743.3172657 -524.04341407 745.3443201 -527.55664062 747.37207031 C-528.14678955 747.71266983 -528.73693848 748.05326935 -529.3449707 748.40419006 C-532.17778694 750.03914438 -535.01054937 751.67419186 -537.84326172 753.30932617 C-539.8259701 754.45341396 -541.81022601 755.59482623 -543.79638672 756.73291016 C-545.39708947 757.66103348 -546.98823066 758.6061427 -548.56298828 759.57763672 C-550.12740625 760.53378348 -551.74924635 761.39510857 -553.38085938 762.23144531 C-554.37085938 761.90144531 -555.36085938 761.57144531 -556.38085938 761.23144531 C-556.37934049 760.65405528 -556.37782161 760.07666526 -556.3762567 759.48177856 C-556.28650745 725.16836041 -556.21799398 690.8549692 -556.17659806 656.54145902 C-556.17159596 652.41020751 -556.1664186 648.27895624 -556.16113281 644.14770508 C-556.15955895 642.91415435 -556.15955895 642.91415435 -556.15795329 641.65568341 C-556.14060563 628.38570559 -556.10909949 615.11579796 -556.07224819 601.84586161 C-556.03468099 588.20311521 -556.0125904 574.56040526 -556.0045054 560.91760927 C-555.99905011 552.51701529 -555.981898 544.11661975 -555.94919351 535.71608693 C-555.92785014 529.93501812 -555.92170346 524.15405006 -555.92685387 518.37294482 C-555.92938537 515.05047183 -555.92357301 511.72861615 -555.90403748 508.40616035 C-555.81788087 492.98185126 -556.76584691 478.45556834 -560.02087808 463.35192305 C-560.38085938 461.23144531 -560.38085938 461.23144531 -560.38085938 457.23144531 C-559.39085937 456.57144531 -558.40085937 455.91144531 -557.38085938 455.23144531 C-556.88715938 452.71775647 -556.88715938 452.71775647 -556.90429688 449.77832031 C-556.87335937 448.68390625 -556.84242188 447.58949219 -556.81054688 446.46191406 C-556.7925 445.31335938 -556.77445313 444.16480469 -556.75585938 442.98144531 C-556.70454453 440.72615772 -556.64995944 438.4709417 -556.59179688 436.21582031 C-556.5742334 435.21260742 -556.55666992 434.20939453 -556.53857422 433.17578125 C-556.22061593 427.23990362 -556.22061593 427.23990362 -555.38085938 424.23144531 C-553.29321289 422.41137695 -553.29321289 422.41137695 -550.50976562 420.89160156 C-549.47400391 420.31152344 -548.43824219 419.73144531 -547.37109375 419.13378906 C-546.23994141 418.52664063 -545.10878906 417.91949219 -543.94335938 417.29394531 C-542.7618082 416.63988113 -541.5814864 415.98359165 -540.40234375 415.32519531 C-537.95080648 413.95860002 -535.49424688 412.60175051 -533.03369141 411.25146484 C-527.43180298 408.16699656 -521.9108321 404.94243811 -516.38085938 401.73144531 C-514.21457552 400.480782 -512.04790735 399.23078414 -509.88085938 397.98144531 C-508.80835938 397.36269531 -507.73585938 396.74394531 -506.63085938 396.10644531 C-496.88085938 390.48144531 -496.88085938 390.48144531 -493.62817383 388.60498047 C-491.47036135 387.3600325 -489.31264585 386.11491641 -487.1550293 384.86962891 C-481.60369345 381.66591881 -476.05049396 378.46550901 -470.49414062 375.27050781 C-465.0586507 372.14404592 -459.6276569 369.0099635 -454.20214844 365.86621094 C-452.42638408 364.83726337 -450.64980643 363.80971684 -448.87207031 362.78417969 C-446.76589546 361.56647688 -444.66596832 360.33882723 -442.56835938 359.10644531 C-441.46878906 358.46449219 -440.36921875 357.82253906 -439.23632812 357.16113281 C-436.22504279 355.12614655 -433.89965737 352.84004765 -431.38085938 350.23144531 C-429.38085938 348.89811198 -427.38085938 347.56477865 -425.38085938 346.23144531 C-423.69374514 344.58548021 -422.02629718 342.91907383 -420.38085938 341.23144531 C-415.73221073 337.23144531 -415.73221073 337.23144531 -413.38085938 337.23144531 C-412.98833984 336.32072266 -412.98833984 336.32072266 -412.58789062 335.39160156 C-411.28048025 333.05180241 -410.25907983 332.16539033 -408.06835938 330.66894531 C-404.22039668 327.91042396 -400.60047839 324.93350212 -397.00585938 321.85644531 C-392.26473414 317.80729028 -387.45825797 313.86354388 -382.57226562 309.98925781 C-380.6626898 308.45751249 -378.79433291 306.89549688 -376.94335938 305.29394531 C-373.86651445 302.63566879 -370.75827507 300.01761052 -367.63085938 297.41894531 C-366.70789062 296.649375 -365.78492188 295.87980469 -364.83398438 295.08691406 C-362.38085938 293.23144531 -362.38085938 293.23144531 -359.38085938 292.23144531 C-359.05085938 291.24144531 -358.72085937 290.25144531 -358.38085938 289.23144531 C-356.48242187 287.50488281 -356.48242187 287.50488281 -354.00585938 285.60644531 C-350.23430081 282.67420649 -346.50339653 279.70949078 -342.81835938 276.66894531 C-338.72510893 273.30621832 -334.57710181 270.03420828 -330.35351562 266.83691406 C-328.21180964 265.09386226 -326.31690078 263.19865036 -324.38085938 261.23144531 C-318.88085938 256.23144531 -318.88085938 256.23144531 -316.38085938 256.23144531 C-316.38085938 255.57144531 -316.38085938 254.91144531 -316.38085938 254.23144531 C-314.87695312 252.93457031 -314.87695312 252.93457031 -312.81835938 251.48144531 C-310.14647927 249.5429309 -307.55723037 247.58764601 -305.06835938 245.41894531 C-299.42560439 240.50261396 -293.61150485 235.775936 -287.73242188 231.14550781 C-285.44542452 229.35047899 -285.44542452 229.35047899 -283.77929688 227.62988281 C-281.82194913 225.67253507 -279.58651998 224.2462038 -277.29492188 222.70800781 C-274.76880099 220.75928599 -272.6344838 218.48842834 -270.38085938 216.23144531 C-268.54708181 214.66558135 -266.69263938 213.12359547 -264.81835938 211.60644531 C-263.88894531 210.85105469 -262.95953125 210.09566406 -262.00195312 209.31738281 C-261.13699219 208.62902344 -260.27203125 207.94066406 -259.38085938 207.23144531 C-258.28451172 206.35359375 -258.28451172 206.35359375 -257.16601562 205.45800781 C-255.38085938 204.23144531 -255.38085938 204.23144531 -253.38085938 204.23144531 C-253.13207031 203.6371875 -252.88328125 203.04292969 -252.62695312 202.43066406 C-251.19193552 199.89801543 -249.78435906 198.75842067 -247.44335938 197.04394531 C-238.78469106 190.5464583 -230.41710154 183.63963916 -222.35351562 176.41503906 C-218.82297678 173.26582471 -215.45350886 170.65302068 -211.38085938 168.23144531 C-209.69323086 166.58600751 -208.02682448 164.91855954 -206.38085938 163.23144531 C-201.73221073 159.23144531 -201.73221073 159.23144531 -199.38085938 159.23144531 C-199.05085938 158.24144531 -198.72085937 157.25144531 -198.38085938 156.23144531 C-196.48242187 154.50488281 -196.48242187 154.50488281 -194.00585938 152.60644531 C-190.23430081 149.67420649 -186.50339653 146.70949078 -182.81835938 143.66894531 C-179.4234718 140.8790872 -175.99661958 138.15016912 -172.50585938 135.48144531 C-169.206255 132.93922344 -166.28886536 130.22022924 -163.38085938 127.23144531 C-158.73221073 123.23144531 -158.73221073 123.23144531 -156.38085938 123.23144531 C-156.38085938 122.57144531 -156.38085938 121.91144531 -156.38085938 121.23144531 C-154.79882812 119.82128906 -154.79882812 119.82128906 -152.56835938 118.16894531 C-148.82354418 115.33807867 -145.1428271 112.45010206 -141.50585938 109.48144531 C-140.6009375 108.74410156 -139.69601562 108.00675781 -138.76367188 107.24707031 C-136.86415834 105.6402687 -135.1158481 104.0078666 -133.38085938 102.23144531 C-129.71419271 99.23144531 -129.71419271 99.23144531 -127.38085938 99.23144531 C-127.38085938 98.57144531 -127.38085938 97.91144531 -127.38085938 97.23144531 C-125.83197436 95.8143803 -124.21324404 94.47335035 -122.56835938 93.16894531 C-121.06789063 91.96818359 -121.06789063 91.96818359 -119.53710938 90.74316406 C-119.01503906 90.32856934 -118.49296875 89.91397461 -117.95507812 89.48681641 C-115.47388188 87.50817015 -113.0222592 85.493778 -110.56835938 83.48144531 C-109.65828125 82.73636719 -108.74820312 81.99128906 -107.81054688 81.22363281 C-103.67159063 77.82995486 -99.57447457 74.40696309 -95.56835938 70.85644531 C-92.00305297 67.71979215 -88.30065322 64.80858562 -84.53710938 61.91503906 C-80.68679633 58.9087258 -77.02082487 55.6984457 -73.38085938 52.44238281 C-69.53590048 49.01978683 -65.67007541 46.09092267 -61.38085938 43.23144531 C-59.6942348 41.58497846 -58.02574231 39.91961464 -56.38085938 38.23144531 C-52.76016972 35.23144531 -52.76016972 35.23144531 -50.38085938 35.23144531 C-50.13207031 34.6371875 -49.88328125 34.04292969 -49.62695312 33.43066406 C-48.19193552 30.89801543 -46.78435906 29.75842067 -44.44335938 28.04394531 C-37.2119305 22.61172362 -30.26298963 16.84891085 -23.38183594 10.98144531 C-20.72487914 8.71942079 -18.05328543 6.47517689 -15.38085938 4.23144531 C-14.58035156 3.54953125 -13.77984375 2.86761719 -12.95507812 2.16503906 C-12.27058594 1.60945312 -11.58609375 1.05386719 -10.88085938 0.48144531 C-10.31367187 0.01222656 -9.74648437 -0.45699219 -9.16210938 -0.94042969 C-6.08794757 -2.36964526 -3.110124 -1.00396538 0 0 Z " fill="#FDD600" transform="translate(1406.380859375,556.7685546875)"/>
<path d="M0 0 C2.67179993 0.91462303 4.8880375 2.03709322 7.31323242 3.48486328 C8.24570801 4.03585693 9.17818359 4.58685059 10.13891602 5.15454102 C11.14132324 5.75596924 12.14373047 6.35739746 13.17651367 6.97705078 C15.34927348 8.26291237 17.52246525 9.5480443 19.69604492 10.83251953 C20.81833496 11.49815918 21.940625 12.16379883 23.09692383 12.84960938 C28.49595515 16.03680204 33.92954207 19.16329754 39.36401367 22.28955078 C41.54895735 23.54858234 43.73385292 24.80769739 45.91870117 26.06689453 C47.54630371 27.0044458 47.54630371 27.0044458 49.20678711 27.9609375 C54.6356131 31.08885226 60.06220648 34.22063526 65.48901367 37.35205078 C67.6556695 38.60206957 69.82233617 39.85206957 71.98901367 41.10205078 C117.48901367 67.35205078 117.48901367 67.35205078 162.98901367 93.60205078 C164.0616748 94.22088135 165.13433594 94.83971191 166.23950195 95.47729492 C168.40458438 96.72640596 170.56962349 97.97559207 172.73461914 99.22485352 C178.17517073 102.36407388 183.61648583 105.50195641 189.05932617 108.63720703 C199.51107567 114.65952407 209.95200915 120.69874415 220.36401367 126.78955078 C229.04163609 131.86480201 237.75506935 136.87463845 246.48901367 141.85205078 C256.21016984 147.39206808 265.89796025 152.98579887 275.5559082 158.63549805 C286.07985992 164.7897182 296.64281505 170.87575074 307.20678711 176.9609375 C312.6356131 180.08885226 318.06220648 183.22063526 323.48901367 186.35205078 C325.6556695 187.60206957 327.82233617 188.85206957 329.98901367 190.10205078 C386.32234701 222.60205078 442.65568034 255.10205078 498.98901367 287.60205078 C500.06223877 288.22120361 501.13546387 288.84035645 502.24121094 289.47827148 C504.40060762 290.72410848 506.55995036 291.97003896 508.71923828 293.21606445 C514.24668964 296.40554031 519.77516488 299.59321963 525.30541992 302.77783203 C527.55416914 304.07331591 529.80286776 305.3688876 532.05151367 306.66455078 C533.13053955 307.28604004 534.20956543 307.9075293 535.32128906 308.54785156 C542.41300921 312.63811715 549.482246 316.76443955 556.50488281 320.97241211 C559.15100286 322.54597515 561.55732093 323.87481987 564.48901367 324.85205078 C563.21104507 328.68595658 562.01450699 328.95841893 558.52026367 330.85595703 C557.48329346 331.42628662 556.44632324 331.99661621 555.37792969 332.58422852 C554.2595874 333.18823486 553.14124512 333.79224121 551.98901367 334.41455078 C549.67444496 335.68659435 547.3606433 336.9600346 545.04760742 338.23486328 C543.91564941 338.85651367 542.78369141 339.47816406 541.61743164 340.11865234 C537.7219005 342.27709398 533.87751487 344.51074738 530.05151367 346.78955078 C523.0819827 350.92633797 516.07398594 354.9932716 509.05151367 359.03955078 C507.94428955 359.67755615 506.83706543 360.31556152 505.69628906 360.97290039 C503.425643 362.28094555 501.15489009 363.58880526 498.8840332 364.89648438 C493.41731388 368.04537132 487.9532648 371.19888342 482.48901367 374.35205078 C480.32236056 375.60207428 478.15569388 376.85207425 475.98901367 378.10205078 C474.91651367 378.72080078 473.84401367 379.33955078 472.73901367 379.97705078 C410.98901368 415.60205078 410.98901368 415.60205078 407.73852539 417.47729492 C405.57344297 418.72640596 403.40840385 419.97559207 401.2434082 421.22485352 C395.80285661 424.36407388 390.36154151 427.50195641 384.91870117 430.63720703 C374.46695168 436.65952407 364.02601819 442.69874415 353.61401367 448.78955078 C344.93638928 453.86480317 336.22288441 458.87450707 327.48901367 463.85205078 C318.56912026 468.93608559 309.66903005 474.05196367 300.80151367 479.22705078 C299.8234375 479.79625244 298.84536133 480.3654541 297.83764648 480.9519043 C293.3191042 483.58746491 288.82058134 486.24812535 284.36010742 488.98095703 C283.18097778 489.69662842 283.18097778 489.69662842 281.97802734 490.42675781 C280.53283731 491.30638389 279.09366627 492.19601268 277.66210938 493.09765625 C272.99012418 495.93086576 272.99012418 495.93086576 270.43847656 495.52954102 C268.48901367 494.85205078 268.48901367 494.85205078 266.03198242 493.60986328 C263.46863688 492.53913034 263.46863688 492.53913034 261.10229492 493.96923828 C260.34303711 494.54931641 259.5837793 495.12939453 258.80151367 495.72705078 C254.63251143 498.85205078 254.63251143 498.85205078 252.48901367 498.85205078 C252.48901367 499.51205078 252.48901367 500.17205078 252.48901367 500.85205078 C246.49854538 505.00870225 246.49854538 505.00870225 241.86401367 504.28955078 C238.48901367 502.85205078 238.48901367 502.85205078 235.86401367 501.10205078 C233.54748047 499.5549481 233.54748047 499.5549481 230.98901367 500.41455078 C227.42575893 502.46342226 224.47108233 504.8372465 221.61401367 507.78955078 C219.8120866 509.53848 218.02679715 511.12016068 216.05151367 512.66455078 C215.49592773 513.10412109 214.9403418 513.54369141 214.36791992 513.99658203 C210.71207583 515.66109317 207.46672034 513.84426847 203.85229492 512.58251953 C202.50045694 512.07235747 201.15025098 511.55785468 199.80151367 511.03955078 C199.0918042 510.77037842 198.38209473 510.50120605 197.65087891 510.22387695 C193.76728942 508.74527679 189.90237183 507.22669135 186.05151367 505.66455078 C182.34702052 504.16423105 178.61183646 502.86126607 174.81323242 501.62158203 C167.89490755 499.33097699 161.11568454 496.71634097 154.36401367 493.97705078 C148.4036144 491.56485105 142.39203859 489.35912242 136.32080078 487.24316406 C123.23063243 482.68048166 110.21566128 477.90292907 97.25 472.99829102 C92.56178716 471.23295784 87.84463989 469.56238829 83.11401367 467.91455078 C76.42331167 465.58181548 69.8227066 463.05994469 63.23095703 460.4621582 C57.38014382 458.16835547 51.47992271 456.0506197 45.54516602 453.98535156 C40.14396231 452.10056311 34.80452263 450.07982355 29.47338867 448.00439453 C25.77627954 446.57684585 22.05656547 445.21917712 18.328125 443.87597656 C15.64971854 442.91000901 12.97325686 441.93890679 10.29760742 440.96533203 C8.85756348 440.44144897 8.85756348 440.44144897 7.38842773 439.90698242 C6.43162109 439.55885498 5.47481445 439.21072754 4.48901367 438.85205078 C2.78460064 438.23222049 1.08017398 437.61242765 -0.62426758 436.99267578 C-3.30330934 436.01854849 -5.98229516 435.04426858 -8.66113281 434.06958008 C-13.56287961 432.28634642 -18.46556386 430.50578411 -23.37036133 428.73095703 C-32.2314876 425.52172325 -41.0824298 422.30612656 -49.85473633 418.85986328 C-51.59821151 418.19836828 -53.35649298 417.57442173 -55.12817383 416.99267578 C-61.22087008 414.93832554 -67.20868404 412.59009348 -73.21801758 410.30517578 C-79.43748486 407.95612477 -85.68231391 405.75858045 -92.00976562 403.71704102 C-94.99230819 402.68559658 -97.70357026 401.28695233 -100.51098633 399.85205078 C-102.66574941 399.07394189 -104.83787452 398.36973067 -107.01879883 397.66845703 C-112.95347587 395.72433869 -118.79847157 393.50618163 -124.63598633 391.28955078 C-127.30405084 390.2816153 -129.98601315 389.35823535 -132.69848633 388.47705078 C-140.15908862 386.01555955 -147.44141322 383.06084036 -154.74926758 380.18408203 C-162.93887871 376.96807853 -171.15053485 373.87520686 -179.46044922 370.98339844 C-184.80471311 369.11893156 -190.08400838 367.1128642 -195.35864258 365.05908203 C-199.77047574 363.36979275 -204.22230371 361.80077277 -208.67504883 360.22314453 C-213.76855385 358.41126258 -218.8359177 356.52866095 -223.90649414 354.65380859 C-230.22412819 352.32017757 -236.55370787 350.02060215 -242.88598633 347.72705078 C-249.85455398 345.20095252 -256.79385064 342.62023813 -263.70239258 339.93408203 C-268.28006504 338.17050029 -272.89517745 336.5126575 -277.51098633 334.85205078 C-283.06134345 332.84986716 -288.60029011 330.82252508 -294.12036133 328.73803711 C-300.45483285 326.3464979 -306.80677589 324.02391054 -313.19848633 321.78955078 C-319.36083764 319.63482386 -325.46512047 317.36294306 -331.55004883 314.99658203 C-337.54298058 312.680053 -343.58936539 310.51582747 -349.65942383 308.41064453 C-363.06889458 303.7482747 -363.06889458 303.7482747 -369.39453125 300.78100586 C-371.44215333 299.88226298 -373.47387631 299.1565638 -375.60083008 298.46923828 C-380.7832188 296.77027727 -385.92834128 294.97271254 -391.07348633 293.16455078 C-391.98678711 292.84421875 -392.90008789 292.52388672 -393.84106445 292.19384766 C-396.06458979 291.41386756 -398.28789231 290.63325916 -400.51098633 289.85205078 C-399.67482902 285.42228292 -397.66108971 283.96335333 -394.13598633 281.16455078 C-393.15887695 280.37693359 -392.18176758 279.58931641 -391.17504883 278.77783203 C-388.51098633 276.85205078 -388.51098633 276.85205078 -385.51098633 275.85205078 C-385.51098633 275.19205078 -385.51098633 274.53205078 -385.51098633 273.85205078 C-384.00708008 272.55517578 -384.00708008 272.55517578 -381.94848633 271.10205078 C-379.27660622 269.16353637 -376.68735732 267.20825148 -374.19848633 265.03955078 C-369.39897976 260.8603886 -364.44460666 256.87104867 -359.51098633 252.85205078 C-353.66041105 248.0811954 -347.82093051 243.29731626 -342.01098633 238.47705078 C-341.03129883 237.66494141 -340.05161133 236.85283203 -339.04223633 236.01611328 C-336.36599648 233.78502589 -336.36599648 233.78502589 -333.51098633 230.85205078 C-337.14098633 228.87205078 -340.77098633 226.89205078 -344.51098633 224.85205078 C-342.55127875 220.93263562 -342.08414334 220.24925478 -338.63598633 218.10205078 C-337.83290039 217.59029297 -337.02981445 217.07853516 -336.20239258 216.55126953 C-335.31422852 215.99052734 -334.42606445 215.42978516 -333.51098633 214.85205078 C-331.52808539 213.54519929 -329.54906145 212.23245057 -327.57348633 210.91455078 C-326.56672852 210.24552734 -325.5599707 209.57650391 -324.52270508 208.88720703 C-320.78735111 206.36305733 -317.12182798 203.74793599 -313.47192383 201.10205078 C-311.51098633 199.85205078 -311.51098633 199.85205078 -309.51098633 199.85205078 C-309.51098633 199.19205078 -309.51098633 198.53205078 -309.51098633 197.85205078 C-307.39379883 196.34423828 -307.39379883 196.34423828 -304.63598633 194.72705078 C-303.73106445 194.18822266 -302.82614258 193.64939453 -301.89379883 193.09423828 C-299.51098633 191.85205078 -299.51098633 191.85205078 -297.51098633 191.85205078 C-297.18098633 190.86205078 -296.85098633 189.87205078 -296.51098633 188.85205078 C-294.40161133 187.42236328 -294.40161133 187.42236328 -291.76098633 185.97705078 C-287.6734987 183.63465099 -284.61763764 181.37292227 -281.51098633 177.85205078 C-282.37723633 177.38154297 -283.24348633 176.91103516 -284.13598633 176.42626953 C-285.80661133 175.49234375 -285.80661133 175.49234375 -287.51098633 174.53955078 C-288.62473633 173.92466797 -289.73848633 173.30978516 -290.88598633 172.67626953 C-291.75223633 172.07427734 -292.61848633 171.47228516 -293.51098633 170.85205078 C-293.51098633 169.86205078 -293.51098633 168.87205078 -293.51098633 167.85205078 C-292.79894043 167.44591553 -292.08689453 167.03978027 -291.35327148 166.62133789 C-275.12053178 157.36013544 -258.91038828 148.06125218 -242.72875977 138.7109375 C-237.32427983 135.58880471 -231.91748526 132.47068552 -226.51098633 129.35205078 C-225.43977539 128.73394531 -224.36856445 128.11583984 -223.26489258 127.47900391 C-217.82452558 124.33982704 -212.38335678 121.20205449 -206.94067383 118.06689453 C-196.48892433 112.04457749 -186.04799085 106.00535741 -175.63598633 99.91455078 C-166.36598855 94.49283901 -157.05266881 89.15000163 -147.72253418 83.83282471 C-138.59815793 78.63159949 -129.50965859 73.371772 -120.4440918 68.06860352 C-109.92014008 61.91438337 -99.35718495 55.82835082 -88.79321289 49.74316406 C-83.3643869 46.6152493 -77.93779352 43.4834663 -72.51098633 40.35205078 C-70.3443305 39.10203199 -68.17766383 37.852032 -66.01098633 36.60205078 C-64.93848633 35.98330078 -63.86598633 35.36455078 -62.76098633 34.72705078 C-53.01098632 29.10205078 -53.01098632 29.10205078 -49.75585938 27.22412109 C-47.60624998 25.98394317 -45.45667274 24.74370951 -43.30712891 23.50341797 C-38.23789421 20.57854848 -33.16833697 17.65424245 -28.09762573 14.73193359 C-25.70672036 13.35398141 -23.31599961 11.97570906 -20.92529297 10.59741211 C-19.2411467 9.62664096 -17.55673401 8.65633204 -15.87231445 7.68603516 C-14.84944336 7.09628906 -13.82657227 6.50654297 -12.77270508 5.89892578 C-11.87511475 5.38168945 -10.97752441 4.86445313 -10.05273438 4.33154297 C-7.47144577 2.87510166 -7.47144577 2.87510166 -4.99462891 1.09912109 C-2.51098633 -0.14794922 -2.51098633 -0.14794922 0 0 Z " fill="#FDD600" transform="translate(694.510986328125,172.14794921875)"/>
<path d="M0 0 C2.10237132 4.20474264 2.39243507 7.37307876 2.5625 11.9375 C2.6357768 13.47009741 2.71000479 15.00264962 2.78515625 16.53515625 C2.83760498 17.67041748 2.83760498 17.67041748 2.89111328 18.82861328 C3.14510329 23.89360688 3.57888914 28.94666968 4 34 C4.07089844 34.85078125 4.14179687 35.7015625 4.21484375 36.578125 C4.80903526 43.37484193 5.54297388 50.15590882 6.26708984 56.93969727 C6.84522846 62.40164289 7.34622833 67.86479552 7.78515625 73.33984375 C8.00833309 76.10317881 8.24475581 78.86443593 8.5 81.625 C8.5721875 82.42164063 8.644375 83.21828125 8.71875 84.0390625 C8.90525505 86.07359228 8.90525505 86.07359228 10 88 C10.30869938 90.29809536 10.50883648 92.59720129 10.71875 94.90625 C10.892155 97.05443933 10.892155 97.05443933 12 99 C12.30869938 101.29809536 12.50883648 103.59720129 12.71875 105.90625 C12.892155 108.05443933 12.892155 108.05443933 14 110 C14.31120284 112.55877893 14.50964666 115.11851612 14.71875 117.6875 C14.87136047 120.02268455 14.87136047 120.02268455 16 122 C16.24017569 123.33185572 16.43839499 124.67143712 16.61328125 126.01342773 C16.72470459 126.84060806 16.83612793 127.66778839 16.95092773 128.52003479 C17.12990601 129.86943398 17.12990601 129.86943398 17.3125 131.24609375 C18.87442764 142.58488597 20.89253124 153.81442919 23 165.0625 C23.69161743 168.76096638 24.37966454 172.46005801 25.0625 176.16015625 C25.22782227 177.05505768 25.39314453 177.94995911 25.56347656 178.87197876 C26.89135898 186.16765979 28.02119182 193.48562887 29.04907227 200.82936096 C29.57195603 205.04272415 29.57195603 205.04272415 31 209 C31.31045526 211.59143905 31.50973912 214.18371732 31.71875 216.78515625 C31.7665741 218.97070668 31.7665741 218.97070668 33 220 C33.07226502 221.85287502 33.0838122 223.70833878 33.0625 225.5625 C33.05347656 226.57441406 33.04445313 227.58632812 33.03515625 228.62890625 C33.01775391 229.80259766 33.01775391 229.80259766 33 231 C33.66 231.33 34.32 231.66 35 232 C35.51560486 234.84211459 35.90864269 237.63499876 36.25 240.5 C37.51885212 250.2499907 39.20083896 259.8999122 41 269.5625 C42.90500376 279.81344236 44.72747567 290.05931397 46.15039062 300.39086914 C46.64551291 304.31717673 46.64551291 304.31717673 48 308 C48.27535948 309.57881181 48.50870703 311.16508545 48.71875 312.75390625 C48.91017578 314.15866211 48.91017578 314.15866211 49.10546875 315.59179688 C49.36899938 317.57610424 49.63201826 319.56047963 49.89453125 321.54492188 C50.08595703 322.94774414 50.08595703 322.94774414 50.28125 324.37890625 C50.39533203 325.2407251 50.50941406 326.10254395 50.62695312 326.99047852 C50.80215013 328.99087237 50.80215013 328.99087237 52 330 C52.20956883 331.78715644 52.36811616 333.58043769 52.5 335.375 C52.73236344 338.52020509 52.99875969 340.99627907 54 344 C54.30126699 345.55022933 54.57525059 347.1058467 54.83203125 348.6640625 C54.98889404 349.61007324 55.14575684 350.55608398 55.30737305 351.53076172 C55.47406494 352.55186035 55.64075684 353.57295898 55.8125 354.625 C56.07317261 356.20112061 56.07317261 356.20112061 56.33911133 357.80908203 C57.28687766 363.56207048 58.21135827 369.31838834 59.1171875 375.078125 C59.29660889 376.21556152 59.47603027 377.35299805 59.66088867 378.52490234 C60.00799545 380.73306149 60.35198281 382.94171357 60.69262695 385.15087891 C60.84948975 386.15038574 61.00635254 387.14989258 61.16796875 388.1796875 C61.30485107 389.06382324 61.4417334 389.94795898 61.58276367 390.85888672 C61.90869148 393.04061526 61.90869148 393.04061526 63 395 C63.31045526 397.59143905 63.50973912 400.18371732 63.71875 402.78515625 C63.7665741 404.97070668 63.7665741 404.97070668 65 406 C65.20896317 407.80811184 65.36780361 409.62216032 65.5 411.4375 C65.71419183 415.36434915 65.71419183 415.36434915 67 419 C67.30869938 421.29809536 67.50883648 423.59720129 67.71875 425.90625 C67.892155 428.05443933 67.892155 428.05443933 69 430 C69.42578234 432.87326497 69.81450351 435.74478791 70.1875 438.625 C71.57408126 448.86737083 73.45061672 458.99566661 75.39935303 469.14172363 C77.19664936 478.51308364 78.85422362 487.88387529 80.15039062 497.34008789 C80.64163716 501.29249868 80.64163716 501.29249868 82 505 C82.07033769 506.87379605 82.0843022 508.75001102 82.0625 510.625 C82.05347656 511.62789062 82.04445313 512.63078125 82.03515625 513.6640625 C82.01775391 514.82035156 82.01775391 514.82035156 82 516 C82.66 516 83.32 516 84 516 C84.06058594 516.77085937 84.12117188 517.54171875 84.18359375 518.3359375 C84.30927734 519.84027344 84.30927734 519.84027344 84.4375 521.375 C84.51871094 522.37273438 84.59992188 523.37046875 84.68359375 524.3984375 C84.84965626 526.97927613 84.84965626 526.97927613 86 529 C86.48432624 531.75207514 86.92792189 534.49915315 87.34375 537.26171875 C87.61166249 538.99923506 87.87990431 540.73670061 88.1484375 542.47412109 C88.35774902 543.83703278 88.35774902 543.83703278 88.57128906 545.22747803 C89.6962168 552.50251252 90.87774198 559.76872468 92.05224609 567.03588867 C92.35215576 568.89568836 92.65064539 570.75571756 92.94775391 572.6159668 C94.5315394 582.52804069 96.16627069 592.381129 98.40576172 602.16967773 C99.23017232 606.09629732 99.60105247 610.01052474 100 614 C100.33 614.66 100.66 615.32 101 616 C101.31045526 618.59143905 101.50973912 621.18371732 101.71875 623.78515625 C101.7665741 625.97070668 101.7665741 625.97070668 103 627 C103.20904433 628.62009359 103.36785857 630.24682881 103.5 631.875 C103.74279416 634.84922849 104.05025071 637.15075214 105 640 C105.46143607 642.60621869 105.89453574 645.20992171 106.3046875 647.82421875 C106.4293338 648.60328079 106.5539801 649.38234283 106.68240356 650.18501282 C107.08232803 652.6854674 107.47901359 655.18641895 107.875 657.6875 C109.56802968 668.37223364 111.32495227 679.03003703 113.36816406 689.65405273 C115.2288484 699.5074835 115.2288484 699.5074835 114 703 C109.57346637 708.34210725 104.64234238 712.76564717 98 715 C98 715.66 98 716.32 98 717 C95.8828125 718.9453125 95.8828125 718.9453125 93.125 721.125 C92.22007812 721.84945312 91.31515625 722.57390625 90.3828125 723.3203125 C88 725 88 725 86 725 C86 725.66 86 726.32 86 727 C85.34 727 84.68 727 84 727 C84 727.66 84 728.32 84 729 C82.35546875 730.47265625 82.35546875 730.47265625 80.1875 732.0625 C79.47980469 732.58972656 78.77210938 733.11695313 78.04296875 733.66015625 C76 735 76 735 73 736 C72.67 736.99 72.34 737.98 72 739 C70.5390625 740.2890625 70.5390625 740.2890625 68.625 741.625 C60.03254294 747.82637834 51.90616473 754.71919389 44.0078125 761.78125 C40.160665 765.2073889 36.29250058 768.13833294 32 771 C31.175 771.825 30.35 772.65 29.5 773.5 C26.86485459 776.13514541 24.09378955 777.93747363 21 780 C19.33054394 781.6638726 17.66422467 783.33089491 16 785 C14.1442416 786.60584252 12.26820915 788.18848517 10.375 789.75 C9.59177368 790.39787476 9.59177368 790.39787476 8.79272461 791.05883789 C5.39437497 793.86608096 1.97845573 796.65172058 -1.4375 799.4375 C-6.66486324 803.70272537 -11.81614795 808.05330051 -16.95703125 812.421875 C-17.96121094 813.27265625 -18.96539063 814.1234375 -20 815 C-20.54446777 815.47501953 -21.08893555 815.95003906 -21.64990234 816.43945312 C-25.78259054 820 -25.78259054 820 -28 820 C-28 820.66 -28 821.32 -28 822 C-31.46153846 825 -31.46153846 825 -34 825 C-34 825.66 -34 826.32 -34 827 C-35.51171875 828.33984375 -35.51171875 828.33984375 -37.6875 829.9375 C-41.69667963 832.96483972 -45.55646556 836.11424171 -49.375 839.375 C-54.38248094 843.64288076 -59.4419998 847.83768524 -64.55078125 851.984375 C-66.76109272 853.80338731 -68.91643476 855.66865274 -71.0625 857.5625 C-74 860 -74 860 -76 860 C-76.33 860.99 -76.66 861.98 -77 863 C-78.4609375 864.2890625 -78.4609375 864.2890625 -80.375 865.625 C-88.70167233 871.6444594 -96.46711475 878.37892408 -104.28369141 885.03808594 C-108.13197732 888.30294814 -112.06036321 891.43493669 -116.09765625 894.46484375 C-118.21978604 896.17736327 -120.08877885 898.05712301 -122 900 C-125.64285714 903 -125.64285714 903 -128 903 C-128.2784375 903.8353125 -128.2784375 903.8353125 -128.5625 904.6875 C-130.64110826 908.03134807 -133.60813602 910.04807828 -137 912 C-137.66 912 -138.32 912 -139 912 C-139.309375 912.8971875 -139.309375 912.8971875 -139.625 913.8125 C-141.50926082 916.81018767 -143.81132084 917.61361776 -147 919 C-147.13809082 917.84765869 -147.27618164 916.69531738 -147.41845703 915.50805664 C-147.94805288 911.27738586 -148.60292395 907.07619298 -149.3046875 902.87109375 C-149.4293338 902.11893082 -149.5539801 901.36676788 -149.68240356 900.59181213 C-149.94548705 899.00760451 -150.20940459 897.42353518 -150.47412109 895.83959961 C-150.86983993 893.46841955 -151.26125236 891.09655646 -151.65234375 888.72460938 C-153.07377601 880.1635862 -154.61939921 871.64735788 -156.39257812 863.15185547 C-157.17113336 859.11200495 -157.58400225 855.09064457 -158 851 C-158.33 850.34 -158.66 849.68 -159 849 C-159.30869938 846.70190464 -159.50883648 844.40279871 -159.71875 842.09375 C-159.892155 839.94556067 -159.892155 839.94556067 -161 838 C-161.2275015 836.12943209 -161.40962811 834.25314042 -161.5625 832.375 C-161.64628906 831.37210938 -161.73007812 830.36921875 -161.81640625 829.3359375 C-161.87699219 828.56507813 -161.93757813 827.79421875 -162 827 C-165.78238119 827 -166.87510466 828.14103538 -169.875 830.375 C-173.16441625 832.81942859 -176.12987563 834.62673006 -180 836 C-180 836.66 -180 837.32 -180 838 C-182.1171875 839.5078125 -182.1171875 839.5078125 -184.875 841.125 C-185.77992188 841.66382813 -186.68484375 842.20265625 -187.6171875 842.7578125 C-190 844 -190 844 -192 844 C-192.33 844.99 -192.66 845.98 -193 847 C-195.109375 848.46484375 -195.109375 848.46484375 -197.75 849.9375 C-201.44824399 852.06647497 -204.69798862 854.29065733 -208 857 C-210.24079736 858.5442199 -212.50652331 860.04532531 -214.78125 861.5390625 C-216.68556199 862.79295807 -218.5620538 864.07873571 -220.4375 865.375 C-223 867 -223 867 -225 867 C-224.979375 866.21625 -224.95875 865.4325 -224.9375 864.625 C-224.81315937 862.01885039 -224.81315937 862.01885039 -226 860 C-226.06995515 857.52970861 -225.99729537 855.07576482 -225.9375 852.60546875 C-225.92329284 850.03196031 -225.92329284 850.03196031 -226.46875 847.68359375 C-227.17833593 844.09914132 -227.32230911 840.51564405 -227.5 836.875 C-227.80372634 831.19640215 -228.19523294 825.54707641 -228.75 819.88671875 C-229.18494098 814.86450957 -229.44024817 809.82980086 -229.71875 804.796875 C-229.98809569 801.16070816 -230.47975691 797.60701873 -231 794 C-231 791.66666667 -231 789.33333333 -231 787 C-231.495 785.515 -231.495 785.515 -232 784 C-232.625 781.1875 -232.625 781.1875 -232 778 C-226.12831755 772.92109936 -218.57270275 769.36866438 -211.84295654 765.56808472 C-209.37627275 764.17492545 -206.91390715 762.77420869 -204.45123291 761.37397766 C-203.17649368 760.64924366 -201.90154973 759.92486964 -200.62640381 759.20085144 C-194.35957699 755.64138571 -188.11516695 752.04348053 -181.875 748.4375 C-180.2820813 747.51735107 -180.2820813 747.51735107 -178.65698242 746.57861328 C-176.51343089 745.34030467 -174.36995737 744.10186101 -172.2265625 742.86328125 C-168.96475993 740.9796495 -165.70138156 739.09877679 -162.4375 737.21875 C-151.98287049 731.19560261 -141.53951558 725.15477555 -131.125 719.0625 C-121.85500223 713.64078822 -112.54168248 708.29795085 -103.21154785 702.98077393 C-94.0871716 697.77954871 -84.99867226 692.51972122 -75.93310547 687.21655273 C-65.42671741 681.0726035 -54.8813613 674.99680244 -44.33496094 668.921875 C-40.91246454 666.94955497 -37.49116227 664.97517387 -34.0703125 663 C-32.92804199 662.34056396 -31.78577148 661.68112793 -30.60888672 661.00170898 C-28.45676611 659.75921051 -26.30473923 658.51654969 -24.15283203 657.27368164 C-16.44776432 652.82662481 -8.72437864 648.41393065 -1 644 C-0.67 431.48 -0.34 218.96 0 0 Z " fill="#2D2C2D" transform="translate(649,1016)"/>
<path d="M0 0 C0.680625 0.268125 1.36125 0.53625 2.0625 0.8125 C2.0625 1.4725 2.0625 2.1325 2.0625 2.8125 C2.78203857 3.08545898 3.50157715 3.35841797 4.24291992 3.63964844 C7.0158802 4.79310771 9.5572937 6.10988687 12.17578125 7.578125 C13.16376709 8.13105225 14.15175293 8.68397949 15.16967773 9.25366211 C16.22743408 9.85057861 17.28519043 10.44749512 18.375 11.0625 C19.48367432 11.68584229 20.59234863 12.30918457 21.73461914 12.95141602 C31.20190877 18.29123305 40.59549965 23.75373025 49.97265625 29.25 C56.27820419 32.9446331 62.60544436 36.60102681 68.9375 40.25 C70.01765381 40.87253662 71.09780762 41.49507324 72.21069336 42.13647461 C74.40046334 43.39826826 76.59032355 44.65990534 78.78027344 45.92138672 C83.12856958 48.42673497 87.47542341 50.93457822 91.82202148 53.44287109 C93.96967831 54.68198478 96.11762418 55.92059764 98.26586914 57.15869141 C103.34053957 60.08394002 108.4125591 63.01352587 113.4758606 65.95840454 C115.86565668 67.3479863 118.25686836 68.73512172 120.64819336 70.12207031 C122.33390589 71.10113253 124.01756587 72.08372606 125.70117188 73.06640625 C126.72404297 73.659375 127.74691406 74.25234375 128.80078125 74.86328125 C129.69837158 75.38575439 130.59596191 75.90822754 131.52075195 76.4465332 C133.98463502 77.7706544 136.44614731 78.82956574 139.0625 79.8125 C139.0625 80.4725 139.0625 81.1325 139.0625 81.8125 C139.76995361 82.07716064 140.47740723 82.34182129 141.20629883 82.61450195 C144.21087346 83.8747334 146.93750798 85.35633309 149.76171875 86.98046875 C150.87643555 87.61944092 151.99115234 88.25841309 153.13964844 88.91674805 C154.34316348 89.61105354 155.54661244 90.30547358 156.75 91 C157.99367268 91.71484745 159.23748986 92.42944357 160.48144531 93.14379883 C163.05500892 94.62254895 165.6273488 96.1033966 168.19873047 97.5859375 C171.3348072 99.39391988 174.47327456 101.1976924 177.61286926 102.9995575 C180.51369986 104.66471459 183.41307502 106.33239653 186.3125 108 C187.37557373 108.61061279 188.43864746 109.22122559 189.53393555 109.8503418 C194.54834589 112.7413993 199.50891931 115.66278303 204.33496094 118.8605957 C206.22017423 119.89938127 207.96153463 120.38003305 210.0625 120.8125 C210.0625 121.4725 210.0625 122.1325 210.0625 122.8125 C210.79106201 123.0899707 211.51962402 123.36744141 212.27026367 123.65332031 C214.88944348 124.74065665 217.27372742 125.96147015 219.73828125 127.359375 C220.63587158 127.86710449 221.53346191 128.37483398 222.45825195 128.89794922 C223.42077881 129.44725098 224.38330566 129.99655273 225.375 130.5625 C226.38973389 131.13887207 227.40446777 131.71524414 228.44995117 132.30908203 C237.6405878 137.54290401 246.77438214 142.87274042 255.90234375 148.21484375 C265.50192238 153.82928675 275.14385951 159.3705032 284.78027344 164.92138672 C290.20909942 168.04930148 295.63569281 171.18108448 301.0625 174.3125 C303.22915583 175.56251879 305.3958225 176.81251878 307.5625 178.0625 C363.89583333 210.5625 420.22916667 243.0625 476.5625 275.5625 C477.6357251 276.18165283 478.7089502 276.80080566 479.81469727 277.4387207 C481.97409395 278.6845577 484.13343669 279.93048818 486.29272461 281.17651367 C492.95187753 285.01900926 499.61305549 288.85796427 506.27587891 292.6940918 C509.539304 294.57559268 512.79908984 296.46327913 516.05859375 298.3515625 C519.84676867 300.54398608 523.64899176 302.70606746 527.47265625 304.8359375 C528.27823975 305.29121826 529.08382324 305.74649902 529.91381836 306.21557617 C531.38310045 307.04558724 532.85884153 307.86431213 534.34204102 308.66918945 C536.2578125 309.76171875 536.2578125 309.76171875 539.0625 311.8125 C539.0625 313.1325 539.0625 314.4525 539.0625 315.8125 C537.3828125 317.296875 537.3828125 317.296875 535.1875 318.5625 C534.46820312 318.99046875 533.74890625 319.4184375 533.0078125 319.859375 C531.0625 320.8125 531.0625 320.8125 529.0625 320.8125 C529.0625 321.4725 529.0625 322.1325 529.0625 322.8125 C523.0720317 326.96915147 523.0720317 326.96915147 518.4375 326.25 C515.0625 324.8125 515.0625 324.8125 512.4375 323.0625 C510.1209668 321.51539732 510.1209668 321.51539732 507.5625 322.375 C503.99924525 324.42387148 501.04456866 326.79769572 498.1875 329.75 C496.38557292 331.49892922 494.60028347 333.0806099 492.625 334.625 C492.06941406 335.06457031 491.51382813 335.50414062 490.94140625 335.95703125 C487.28556215 337.62154239 484.04020667 335.80471769 480.42578125 334.54296875 C479.07394327 334.03280669 477.72373731 333.51830389 476.375 333 C475.66529053 332.73082764 474.95558105 332.46165527 474.22436523 332.18432617 C470.34077575 330.70572601 466.47585816 329.18714057 462.625 327.625 C458.92050685 326.12468027 455.18532279 324.82171529 451.38671875 323.58203125 C444.46839388 321.29142621 437.68917087 318.67679019 430.9375 315.9375 C424.97710073 313.52530027 418.96552491 311.31957164 412.89428711 309.20361328 C399.80411876 304.64093088 386.78914761 299.86337829 373.82348633 294.95874023 C369.13527349 293.19340706 364.41812622 291.52283751 359.6875 289.875 C352.996798 287.5422647 346.39619293 285.02039391 339.80444336 282.42260742 C333.95363015 280.12880469 328.05340904 278.01106892 322.11865234 275.94580078 C316.71744864 274.06101233 311.37800895 272.04027276 306.046875 269.96484375 C302.34976587 268.53729507 298.6300518 267.17962634 294.90161133 265.83642578 C292.22320487 264.87045823 289.54674319 263.89935601 286.87109375 262.92578125 C285.4310498 262.40189819 285.4310498 262.40189819 283.96191406 261.86743164 C283.00510742 261.5193042 282.04830078 261.17117676 281.0625 260.8125 C279.35808696 260.1926697 277.6536603 259.57287687 275.94921875 258.953125 C273.27017698 257.97899771 270.59119116 257.0047178 267.91235352 256.0300293 C263.01060672 254.24679564 258.10792247 252.46623333 253.203125 250.69140625 C244.34199873 247.48217247 235.49105653 244.26657578 226.71875 240.8203125 C224.97527481 240.1588175 223.21699334 239.53487095 221.4453125 238.953125 C215.35261625 236.89877476 209.36480229 234.5505427 203.35546875 232.265625 C197.13600147 229.91657399 190.89117242 227.71902967 184.5637207 225.67749023 C181.58117814 224.64604579 178.86991607 223.24740155 176.0625 221.8125 C173.90773692 221.03439111 171.73561181 220.33017989 169.5546875 219.62890625 C163.62001046 217.68478791 157.77501475 215.46663085 151.9375 213.25 C149.26943549 212.24206452 146.58747318 211.31868457 143.875 210.4375 C136.41439771 207.97600877 129.1320731 205.02128958 121.82421875 202.14453125 C113.63460761 198.92852775 105.42295148 195.83565608 97.11303711 192.94384766 C91.76877322 191.07938078 86.48947795 189.07331342 81.21484375 187.01953125 C76.80301059 185.33024197 72.35118262 183.76122199 67.8984375 182.18359375 C62.80493248 180.3717118 57.73756863 178.48911017 52.66699219 176.61425781 C46.34935814 174.28062679 40.01977846 171.98105137 33.6875 169.6875 C26.71893235 167.16140174 19.77963569 164.58068735 12.87109375 161.89453125 C8.29342129 160.13094951 3.67830888 158.47310672 -0.9375 156.8125 C-6.48785712 154.81031638 -12.02680378 152.7829743 -17.546875 150.69848633 C-23.88134652 148.30694712 -30.23328957 145.98435976 -36.625 143.75 C-42.78735131 141.59527308 -48.89163414 139.32339228 -54.9765625 136.95703125 C-60.96949425 134.64050222 -67.01587906 132.47627669 -73.0859375 130.37109375 C-86.49540825 125.70872392 -86.49540825 125.70872392 -92.82104492 122.74145508 C-94.868667 121.8427122 -96.90038999 121.11701302 -99.02734375 120.4296875 C-104.20973247 118.73072649 -109.35485495 116.93316176 -114.5 115.125 C-115.41330078 114.80466797 -116.32660156 114.48433594 -117.26757812 114.15429688 C-119.49110346 113.37431678 -121.71440598 112.59370838 -123.9375 111.8125 C-123.10134269 107.38273214 -121.08760338 105.92380255 -117.5625 103.125 C-116.58539063 102.33738281 -115.60828125 101.54976563 -114.6015625 100.73828125 C-111.9375 98.8125 -111.9375 98.8125 -108.9375 97.8125 C-108.9375 97.1525 -108.9375 96.4925 -108.9375 95.8125 C-107.43359375 94.515625 -107.43359375 94.515625 -105.375 93.0625 C-102.7031199 91.12398559 -100.11387099 89.1687007 -97.625 87 C-92.82549343 82.82083782 -87.87112033 78.83149789 -82.9375 74.8125 C-77.08692472 70.04164462 -71.24744418 65.25776547 -65.4375 60.4375 C-64.4578125 59.62539063 -63.478125 58.81328125 -62.46875 57.9765625 C-59.79251016 55.74547511 -59.79251016 55.74547511 -56.9375 52.8125 C-60.5675 50.8325 -64.1975 48.8525 -67.9375 46.8125 C-65.97779242 42.89308484 -65.51065701 42.209704 -62.0625 40.0625 C-61.25941406 39.55074219 -60.45632813 39.03898437 -59.62890625 38.51171875 C-58.74074219 37.95097656 -57.85257812 37.39023437 -56.9375 36.8125 C-54.95459906 35.50564851 -52.97557513 34.19289979 -51 32.875 C-49.99324219 32.20597656 -48.98648438 31.53695313 -47.94921875 30.84765625 C-44.21386478 28.32350655 -40.54834165 25.70838521 -36.8984375 23.0625 C-34.9375 21.8125 -34.9375 21.8125 -32.9375 21.8125 C-32.9375 21.1525 -32.9375 20.4925 -32.9375 19.8125 C-30.8203125 18.3046875 -30.8203125 18.3046875 -28.0625 16.6875 C-27.15757812 16.14867187 -26.25265625 15.60984375 -25.3203125 15.0546875 C-22.9375 13.8125 -22.9375 13.8125 -20.9375 13.8125 C-20.6075 12.8225 -20.2775 11.8325 -19.9375 10.8125 C-17.8984375 9.3828125 -17.8984375 9.3828125 -15.3125 7.9375 C-12.05701162 6.08451874 -9.0594284 4.20051831 -6.125 1.875 C-2.9375 -0.1875 -2.9375 -0.1875 0 0 Z " fill="#2D2C2D" transform="translate(417.9375,350.1875)"/>
<path d="M0 0 C0.81275391 0.2980957 1.62550781 0.59619141 2.46289062 0.90332031 C3.37321045 1.23557617 4.28353027 1.56783203 5.22143555 1.91015625 C6.17767822 2.26368164 7.1339209 2.61720703 8.11914062 2.98144531 C9.10438721 3.34270508 10.08963379 3.70396484 11.10473633 4.07617188 C17.36253366 6.37753584 23.59621945 8.73318012 29.81054688 11.14941406 C34.38821933 12.9129958 39.00333175 14.5708386 43.61914062 16.23144531 C49.20525087 18.24652618 54.77811895 20.28919782 60.33032227 22.39624023 C66.30562038 24.66085747 72.29144811 26.81949834 78.36914062 28.79394531 C83.85351196 30.59341511 89.14403751 32.6354383 94.44726562 34.90722656 C102.99244184 38.4747324 111.71777375 41.68822721 120.52783203 44.53588867 C126.04520001 46.37093202 131.44795615 48.54764187 136.85644531 50.6784668 C144.16947112 53.55515083 151.51263141 56.30041033 158.93237305 58.88867188 C171.9109205 63.41721688 184.83120571 68.11252618 197.64257812 73.09472656 C201.99666286 74.75750695 206.39020531 76.30389207 210.78320312 77.86035156 C215.87670815 79.67223351 220.944072 81.55483514 226.01464844 83.4296875 C232.33228249 85.76331853 238.66186217 88.06289395 244.99414062 90.35644531 C251.96270827 92.88254357 258.90200494 95.46325796 265.81054688 98.14941406 C270.38823286 99.91300101 275.00349403 101.57035716 279.61914062 103.23144531 C289.63459398 106.85608558 299.6264596 110.54461386 309.61914062 114.23144531 C308.80743286 118.26437328 307.48780992 119.48505539 304.18164062 121.98144531 C303.281875 122.67367187 302.38210938 123.36589844 301.45507812 124.07910156 C300.51921875 124.789375 299.58335937 125.49964844 298.61914062 126.23144531 C292.0210156 131.35084809 292.0210156 131.35084809 285.86914062 136.98144531 C283.34501854 139.5055674 280.58190742 141.25626745 277.61914062 143.23144531 C276.95914063 144.22144531 276.29914062 145.21144531 275.61914062 146.23144531 C278.34605873 147.6940119 281.07605943 149.15073073 283.80664062 150.60644531 C284.57556641 151.01894531 285.34449219 151.43144531 286.13671875 151.85644531 C289.90576817 153.86229135 293.61069221 155.73976522 297.61914062 157.23144531 C302.28869491 159.18277366 306.78885088 161.27510905 311.18164062 163.79394531 C314.59677004 165.73867178 317.96065843 167.18513936 321.65820312 168.49316406 C328.29511329 170.99192108 334.46153966 174.75354106 340.61914062 178.23144531 C340.61914062 178.89144531 340.61914062 179.55144531 340.61914062 180.23144531 C339.07226562 181.45800781 339.07226562 181.45800781 336.86914062 182.85644531 C336.04800781 183.38625 335.226875 183.91605469 334.38085938 184.46191406 C333.46949219 185.04585937 332.558125 185.62980469 331.61914062 186.23144531 C329.63707142 187.53955792 327.65800127 188.8522238 325.68164062 190.16894531 C324.67488281 190.83796875 323.668125 191.50699219 322.63085938 192.19628906 C318.8955054 194.72043876 315.22998228 197.3355601 311.58007812 199.98144531 C309.61914062 201.23144531 309.61914062 201.23144531 307.61914062 201.23144531 C307.61914062 201.89144531 307.61914062 202.55144531 307.61914062 203.23144531 C303.51637161 203.52713627 301.29683914 202.80936557 297.79492188 200.69628906 C296.86244629 200.14207275 295.9299707 199.58785645 294.96923828 199.0168457 C293.96683105 198.40703857 292.96442383 197.79723145 291.93164062 197.16894531 C289.75895496 195.8738497 287.58576058 194.57960723 285.41210938 193.28613281 C283.72867432 192.27824707 283.72867432 192.27824707 282.01123047 191.25 C276.62086684 188.04231852 271.18275814 184.91887175 265.74414062 181.79394531 C263.55912635 180.53503629 261.37423116 179.27592054 259.18945312 178.01660156 C257.56185059 177.07905029 257.56185059 177.07905029 255.90136719 176.12255859 C250.4725412 172.99464383 245.04594781 169.86286083 239.61914062 166.73144531 C237.4524848 165.48142652 235.28581813 164.23142653 233.11914062 162.98144531 C211.45247396 150.48144531 189.78580729 137.98144531 168.11914062 125.48144531 C167.04647949 124.86261475 165.97381836 124.24378418 164.86865234 123.60620117 C162.70356992 122.35709013 160.5385308 121.10790402 158.37353516 119.85864258 C152.93298357 116.71942222 147.49166847 113.58153968 142.04882812 110.44628906 C131.59707445 104.42396962 121.15648088 98.38418207 110.74414062 92.29394531 C102.28452772 87.35188142 93.80944638 82.43720074 85.31170654 77.56100464 C84.07005613 76.84803215 82.82903535 76.1339619 81.58868408 75.41873169 C79.85720716 74.42077628 78.12298941 73.42758089 76.38867188 72.43457031 C75.39456299 71.86383789 74.4004541 71.29310547 73.3762207 70.70507812 C72.01146606 69.97562988 72.01146606 69.97562988 70.61914062 69.23144531 C69.79269043 68.77809814 68.96624023 68.32475098 68.11474609 67.85766602 C64.51382632 66.95408949 63.06689439 68.13186966 59.91992188 70.00878906 C58.25002197 70.98537476 58.25002197 70.98537476 56.54638672 71.98168945 C55.34133929 72.71055644 54.1364275 73.43964771 52.93164062 74.16894531 C51.67572057 74.91092712 50.41870383 75.65105547 49.16064453 76.3894043 C46.56992802 77.91263251 43.98486317 79.44483447 41.40380859 80.984375 C35.80434265 84.31840273 30.14610052 87.55003113 24.49414062 90.79394531 C22.34788721 92.03280116 20.20205424 93.27238569 18.05664062 94.51269531 C13.72505556 97.01574021 9.39169459 99.51566304 5.05664062 102.01269531 C-5.39798889 108.03584271 -15.84134379 114.07666977 -26.25585938 120.16894531 C-35.52585715 125.59065709 -44.8391769 130.93349447 -54.16931152 136.25067139 C-63.29368777 141.4518966 -72.38218712 146.71172409 -81.44775391 152.01489258 C-91.97170562 158.16911273 -102.53466075 164.25514527 -113.09863281 170.34033203 C-118.5274588 173.4682468 -123.95405219 176.60002979 -129.38085938 179.73144531 C-131.5475152 180.9814641 -133.71418187 182.2314641 -135.88085938 183.48144531 C-136.95335937 184.10019531 -138.02585937 184.71894531 -139.13085938 185.35644531 C-330.88085938 295.98144531 -330.88085938 295.98144531 -334.13134766 297.85668945 C-336.29643008 299.10580049 -338.4614692 300.35498661 -340.62646484 301.60424805 C-346.06701643 304.74346841 -351.50833153 307.88135094 -356.95117188 311.01660156 C-368.66648599 317.76706137 -380.36250275 324.54845007 -392.03222656 331.37744141 C-398.18893996 334.97347971 -404.37940229 338.49778001 -410.61816406 341.94921875 C-414.23172816 343.96604753 -417.77270594 346.07318429 -421.28710938 348.25878906 C-422.52775146 349.02993042 -422.52775146 349.02993042 -423.79345703 349.81665039 C-425.40728505 350.82581293 -427.01653948 351.84233503 -428.62060547 352.86694336 C-429.34328613 353.31980713 -430.0659668 353.7726709 -430.81054688 354.23925781 C-431.45233887 354.64805176 -432.09413086 355.0568457 -432.75537109 355.47802734 C-433.29178223 355.72665527 -433.82819336 355.9752832 -434.38085938 356.23144531 C-435.04085937 355.90144531 -435.70085938 355.57144531 -436.38085938 355.23144531 C-432.97038917 351.62035921 -429.49918009 348.97699245 -425.38085938 346.23144531 C-423.69374514 344.58548021 -422.02629718 342.91907383 -420.38085938 341.23144531 C-415.73221073 337.23144531 -415.73221073 337.23144531 -413.38085938 337.23144531 C-413.11917969 336.62429688 -412.8575 336.01714844 -412.58789062 335.39160156 C-411.28048025 333.05180241 -410.25907983 332.16539033 -408.06835938 330.66894531 C-404.22039668 327.91042396 -400.60047839 324.93350212 -397.00585938 321.85644531 C-392.26473414 317.80729028 -387.45825797 313.86354388 -382.57226562 309.98925781 C-380.6626898 308.45751249 -378.79433291 306.89549688 -376.94335938 305.29394531 C-373.86651445 302.63566879 -370.75827507 300.01761052 -367.63085938 297.41894531 C-366.70789062 296.649375 -365.78492188 295.87980469 -364.83398438 295.08691406 C-362.38085938 293.23144531 -362.38085938 293.23144531 -359.38085938 292.23144531 C-359.05085938 291.24144531 -358.72085937 290.25144531 -358.38085938 289.23144531 C-356.48242188 287.50488281 -356.48242188 287.50488281 -354.00585938 285.60644531 C-350.23430081 282.67420649 -346.50339653 279.70949078 -342.81835938 276.66894531 C-338.72510893 273.30621832 -334.57710181 270.03420828 -330.35351562 266.83691406 C-328.21180964 265.09386226 -326.31690078 263.19865036 -324.38085938 261.23144531 C-318.88085938 256.23144531 -318.88085938 256.23144531 -316.38085938 256.23144531 C-316.38085938 255.57144531 -316.38085938 254.91144531 -316.38085938 254.23144531 C-314.87695312 252.93457031 -314.87695312 252.93457031 -312.81835938 251.48144531 C-310.14647927 249.5429309 -307.55723037 247.58764601 -305.06835938 245.41894531 C-299.42560439 240.50261396 -293.61150485 235.775936 -287.73242188 231.14550781 C-285.44542452 229.35047899 -285.44542452 229.35047899 -283.77929688 227.62988281 C-281.82194913 225.67253507 -279.58651998 224.2462038 -277.29492188 222.70800781 C-274.76880099 220.75928599 -272.6344838 218.48842834 -270.38085938 216.23144531 C-268.54708181 214.66558135 -266.69263938 213.12359547 -264.81835938 211.60644531 C-263.88894531 210.85105469 -262.95953125 210.09566406 -262.00195312 209.31738281 C-261.13699219 208.62902344 -260.27203125 207.94066406 -259.38085938 207.23144531 C-258.28451172 206.35359375 -258.28451172 206.35359375 -257.16601562 205.45800781 C-255.38085938 204.23144531 -255.38085938 204.23144531 -253.38085938 204.23144531 C-253.13207031 203.6371875 -252.88328125 203.04292969 -252.62695312 202.43066406 C-251.19193552 199.89801543 -249.78435906 198.75842067 -247.44335938 197.04394531 C-238.78469106 190.5464583 -230.41710154 183.63963916 -222.35351562 176.41503906 C-218.82297678 173.26582471 -215.45350886 170.65302068 -211.38085938 168.23144531 C-209.69323086 166.58600751 -208.02682448 164.91855954 -206.38085938 163.23144531 C-201.73221073 159.23144531 -201.73221073 159.23144531 -199.38085938 159.23144531 C-199.05085938 158.24144531 -198.72085937 157.25144531 -198.38085938 156.23144531 C-196.48242188 154.50488281 -196.48242188 154.50488281 -194.00585938 152.60644531 C-190.23430081 149.67420649 -186.50339653 146.70949078 -182.81835938 143.66894531 C-179.4234718 140.8790872 -175.99661958 138.15016912 -172.50585938 135.48144531 C-169.206255 132.93922344 -166.28886536 130.22022924 -163.38085938 127.23144531 C-158.73221073 123.23144531 -158.73221073 123.23144531 -156.38085938 123.23144531 C-156.38085938 122.57144531 -156.38085938 121.91144531 -156.38085938 121.23144531 C-154.79882812 119.82128906 -154.79882812 119.82128906 -152.56835938 118.16894531 C-148.82354418 115.33807867 -145.1428271 112.45010206 -141.50585938 109.48144531 C-140.6009375 108.74410156 -139.69601562 108.00675781 -138.76367188 107.24707031 C-136.86415834 105.6402687 -135.1158481 104.0078666 -133.38085938 102.23144531 C-129.71419271 99.23144531 -129.71419271 99.23144531 -127.38085938 99.23144531 C-127.38085938 98.57144531 -127.38085938 97.91144531 -127.38085938 97.23144531 C-125.83197436 95.8143803 -124.21324404 94.47335035 -122.56835938 93.16894531 C-121.06789063 91.96818359 -121.06789063 91.96818359 -119.53710938 90.74316406 C-119.01503906 90.32856934 -118.49296875 89.91397461 -117.95507812 89.48681641 C-115.47388188 87.50817015 -113.0222592 85.493778 -110.56835938 83.48144531 C-109.65828125 82.73636719 -108.74820312 81.99128906 -107.81054688 81.22363281 C-103.67159063 77.82995486 -99.57447457 74.40696309 -95.56835938 70.85644531 C-92.00305297 67.71979215 -88.30065322 64.80858562 -84.53710938 61.91503906 C-80.68679633 58.9087258 -77.02082487 55.6984457 -73.38085938 52.44238281 C-69.53590048 49.01978683 -65.67007541 46.09092267 -61.38085938 43.23144531 C-59.6942348 41.58497846 -58.02574231 39.91961464 -56.38085938 38.23144531 C-52.76016972 35.23144531 -52.76016972 35.23144531 -50.38085938 35.23144531 C-50.13207031 34.6371875 -49.88328125 34.04292969 -49.62695312 33.43066406 C-48.19193552 30.89801543 -46.78435906 29.75842067 -44.44335938 28.04394531 C-37.2119305 22.61172362 -30.26298963 16.84891085 -23.38183594 10.98144531 C-20.72487914 8.71942079 -18.05328543 6.47517689 -15.38085938 4.23144531 C-14.58035156 3.54953125 -13.77984375 2.86761719 -12.95507812 2.16503906 C-12.27058594 1.60945312 -11.58609375 1.05386719 -10.88085938 0.48144531 C-10.31367187 0.01222656 -9.74648437 -0.45699219 -9.16210938 -0.94042969 C-6.08794757 -2.36964526 -3.110124 -1.00396538 0 0 Z " fill="#2E2C2D" transform="translate(1406.380859375,556.7685546875)"/>
<path d="M0 0 C2.10237132 4.20474264 2.39243507 7.37307876 2.5625 11.9375 C2.6357768 13.47009741 2.71000479 15.00264962 2.78515625 16.53515625 C2.83760498 17.67041748 2.83760498 17.67041748 2.89111328 18.82861328 C3.14510329 23.89360688 3.57888914 28.94666968 4 34 C4.07089844 34.85078125 4.14179687 35.7015625 4.21484375 36.578125 C4.58364494 40.79669302 4.9948483 45.00352276 5.5078125 49.20703125 C6.47615465 57.3431638 7.12397925 65.30239217 7 73.5 C6.77622567 89.41495756 8.19564183 105.34592023 10.25170898 121.1184082 C11.13778444 128.34682819 11.51275498 135.60774003 11.9375 142.875 C12.59786962 154.11976462 13.3915147 165.34125724 14.375 176.5625 C14.46941376 177.64377167 14.46941376 177.64377167 14.56573486 178.74688721 C14.96929238 183.36152368 15.37736828 187.97575415 15.78643799 192.58990479 C16.4704552 200.30919246 17.14681622 208.02910853 17.8125 215.75 C17.89336853 216.68672546 17.97423706 217.62345093 18.05755615 218.58856201 C19.93837895 240.48445498 21.55515089 262.40012527 23.19682312 284.31490326 C24.68567512 304.18116982 26.17838337 324.04146062 28.0625 343.875 C29.69317518 361.06908664 31.06677492 378.2787025 32.375 395.5 C32.42618736 396.17347347 32.47737473 396.84694695 32.53011322 397.5408287 C32.79179918 400.98428417 33.05327774 404.42775538 33.31469727 407.87123108 C33.36762939 408.56843828 33.42056152 409.26564548 33.47509766 409.98398018 C33.58323357 411.40863286 33.69132653 412.83328879 33.79937744 414.25794792 C35.09984386 431.39913495 36.44142777 448.53705499 37.7925415 465.67431641 C38.05268463 468.9742259 38.31208593 472.27419219 38.57073975 475.57421875 C39.76049546 490.7505264 40.95466656 505.92422869 42.36419678 521.08207703 C42.96550684 527.54988961 43.48313422 534.02011206 43.9375 540.5 C44.71273954 551.21140826 45.52884221 561.91900458 46.375 572.625 C46.43661316 573.40475189 46.49822632 574.18450378 46.56170654 574.98788452 C47.62008306 588.36056882 48.70717632 601.73089068 49.79998779 615.10079956 C50.06038836 618.2866652 50.32049731 621.47255455 50.58056641 624.65844727 C51.28116943 633.23631623 51.98307589 641.81403819 52.69921875 650.390625 C52.88281438 652.61458318 53.06640836 654.83854149 53.25 657.0625 C53.37000366 658.46786011 53.37000366 658.46786011 53.49243164 659.90161133 C53.62647944 661.53736732 53.74442338 663.17458232 53.84082031 664.81298828 C53.96384049 667.00028801 53.96384049 667.00028801 54.37011719 669.13623047 C54.625 671.18359375 54.625 671.18359375 54 675 C51.28838387 677.90535914 48.10138297 679.89583002 44.75 682 C43.82485596 682.61246582 42.89971191 683.22493164 41.9465332 683.85595703 C39.31245776 685.59477455 36.6591528 687.29989467 34 689 C32.05958182 690.28727865 30.12144539 691.57801725 28.1875 692.875 C27.27871094 693.47441406 26.36992188 694.07382813 25.43359375 694.69140625 C19.45390664 698.67848857 13.5870593 702.83414663 7.69213867 706.94482422 C1.52647189 711.24399499 -4.65293746 715.52141473 -10.85351562 719.77001953 C-16.84065969 723.87815439 -22.79405712 728.03431378 -28.75 732.1875 C-35.346003 736.78522738 -41.95955512 741.33590549 -48.671875 745.76171875 C-54.61655935 749.72548585 -60.4481526 753.85872135 -66.30859375 757.9453125 C-71.85955505 761.81590518 -77.41761668 765.67487047 -83 769.5 C-89.39746878 773.8846229 -95.76288617 778.31426327 -102.125 782.75 C-109.72062004 788.043917 -117.34301475 793.29526086 -125 798.5 C-146.97796806 813.11026808 -146.97796806 813.11026808 -167.8359375 829.2265625 C-176.10132159 836 -176.10132159 836 -180 836 C-180 836.66 -180 837.32 -180 838 C-182.1171875 839.5078125 -182.1171875 839.5078125 -184.875 841.125 C-185.77992188 841.66382813 -186.68484375 842.20265625 -187.6171875 842.7578125 C-190 844 -190 844 -192 844 C-192.33 844.99 -192.66 845.98 -193 847 C-195.109375 848.46484375 -195.109375 848.46484375 -197.75 849.9375 C-201.44824399 852.06647497 -204.69798862 854.29065733 -208 857 C-210.24079736 858.5442199 -212.50652331 860.04532531 -214.78125 861.5390625 C-216.68556199 862.79295807 -218.5620538 864.07873571 -220.4375 865.375 C-223 867 -223 867 -225 867 C-224.979375 866.21625 -224.95875 865.4325 -224.9375 864.625 C-224.81315937 862.01885039 -224.81315937 862.01885039 -226 860 C-226.06995515 857.52970861 -225.99729537 855.07576482 -225.9375 852.60546875 C-225.92329284 850.03196031 -225.92329284 850.03196031 -226.46875 847.68359375 C-227.17833593 844.09914132 -227.32230911 840.51564405 -227.5 836.875 C-227.80372634 831.19640215 -228.19523294 825.54707641 -228.75 819.88671875 C-229.18494098 814.86450957 -229.44024817 809.82980086 -229.71875 804.796875 C-229.98809569 801.16070816 -230.47975691 797.60701873 -231 794 C-231 791.66666667 -231 789.33333333 -231 787 C-231.495 785.515 -231.495 785.515 -232 784 C-232.625 781.1875 -232.625 781.1875 -232 778 C-226.12831755 772.92109936 -218.57270275 769.36866438 -211.84295654 765.56808472 C-209.37627275 764.17492545 -206.91390715 762.77420869 -204.45123291 761.37397766 C-203.17649368 760.64924366 -201.90154973 759.92486964 -200.62640381 759.20085144 C-194.35957699 755.64138571 -188.11516695 752.04348053 -181.875 748.4375 C-180.2820813 747.51735107 -180.2820813 747.51735107 -178.65698242 746.57861328 C-176.51343089 745.34030467 -174.36995737 744.10186101 -172.2265625 742.86328125 C-168.96475993 740.9796495 -165.70138156 739.09877679 -162.4375 737.21875 C-151.98287049 731.19560261 -141.53951558 725.15477555 -131.125 719.0625 C-121.85500223 713.64078822 -112.54168248 708.29795085 -103.21154785 702.98077393 C-94.0871716 697.77954871 -84.99867226 692.51972122 -75.93310547 687.21655273 C-65.42671741 681.0726035 -54.8813613 674.99680244 -44.33496094 668.921875 C-40.91246454 666.94955497 -37.49116227 664.97517387 -34.0703125 663 C-32.92804199 662.34056396 -31.78577148 661.68112793 -30.60888672 661.00170898 C-28.45676611 659.75921051 -26.30473923 658.51654969 -24.15283203 657.27368164 C-16.44776432 652.82662481 -8.72437864 648.41393065 -1 644 C-0.67 431.48 -0.34 218.96 0 0 Z " fill="#EF175D" transform="translate(649,1016)"/>
<path d="M0 0 C0.680625 0.268125 1.36125 0.53625 2.0625 0.8125 C2.0625 1.4725 2.0625 2.1325 2.0625 2.8125 C2.78203857 3.08545898 3.50157715 3.35841797 4.24291992 3.63964844 C7.0158802 4.79310771 9.5572937 6.10988687 12.17578125 7.578125 C13.16376709 8.13105225 14.15175293 8.68397949 15.16967773 9.25366211 C16.22743408 9.85057861 17.28519043 10.44749512 18.375 11.0625 C19.48367432 11.68584229 20.59234863 12.30918457 21.73461914 12.95141602 C31.20190877 18.29123305 40.59549965 23.75373025 49.97265625 29.25 C56.27820419 32.9446331 62.60544436 36.60102681 68.9375 40.25 C70.01765381 40.87253662 71.09780762 41.49507324 72.21069336 42.13647461 C74.40046334 43.39826826 76.59032355 44.65990534 78.78027344 45.92138672 C83.12856958 48.42673497 87.47542341 50.93457822 91.82202148 53.44287109 C93.96967831 54.68198478 96.11762418 55.92059764 98.26586914 57.15869141 C103.34053957 60.08394002 108.4125591 63.01352587 113.4758606 65.95840454 C115.86565668 67.3479863 118.25686836 68.73512172 120.64819336 70.12207031 C122.33390589 71.10113253 124.01756587 72.08372606 125.70117188 73.06640625 C126.72404297 73.659375 127.74691406 74.25234375 128.80078125 74.86328125 C129.69837158 75.38575439 130.59596191 75.90822754 131.52075195 76.4465332 C133.98463502 77.7706544 136.44614731 78.82956574 139.0625 79.8125 C139.0625 80.4725 139.0625 81.1325 139.0625 81.8125 C139.76995361 82.07716064 140.47740723 82.34182129 141.20629883 82.61450195 C144.21087346 83.8747334 146.93750798 85.35633309 149.76171875 86.98046875 C150.87643555 87.61944092 151.99115234 88.25841309 153.13964844 88.91674805 C154.34316348 89.61105354 155.54661244 90.30547358 156.75 91 C157.99367268 91.71484745 159.23748986 92.42944357 160.48144531 93.14379883 C163.05500892 94.62254895 165.6273488 96.1033966 168.19873047 97.5859375 C171.3348072 99.39391988 174.47327456 101.1976924 177.61286926 102.9995575 C180.51369986 104.66471459 183.41307502 106.33239653 186.3125 108 C187.9071106 108.91591919 187.9071106 108.91591919 189.53393555 109.8503418 C194.54834589 112.7413993 199.50891931 115.66278303 204.33496094 118.8605957 C206.22017423 119.89938127 207.96153463 120.38003305 210.0625 120.8125 C210.0625 121.4725 210.0625 122.1325 210.0625 122.8125 C210.79106201 123.0899707 211.51962402 123.36744141 212.27026367 123.65332031 C214.88944348 124.74065665 217.27372742 125.96147015 219.73828125 127.359375 C220.63587158 127.86710449 221.53346191 128.37483398 222.45825195 128.89794922 C223.42077881 129.44725098 224.38330566 129.99655273 225.375 130.5625 C226.38973389 131.13887207 227.40446777 131.71524414 228.44995117 132.30908203 C237.6405878 137.54290401 246.77438214 142.87274042 255.90234375 148.21484375 C265.50192238 153.82928675 275.14385951 159.3705032 284.78027344 164.92138672 C290.20909942 168.04930148 295.63569281 171.18108448 301.0625 174.3125 C303.22915583 175.56251879 305.3958225 176.81251878 307.5625 178.0625 C363.89583333 210.5625 420.22916667 243.0625 476.5625 275.5625 C477.6357251 276.18165283 478.7089502 276.80080566 479.81469727 277.4387207 C481.97409395 278.6845577 484.13343669 279.93048818 486.29272461 281.17651367 C492.95187753 285.01900926 499.61305549 288.85796427 506.27587891 292.6940918 C509.539304 294.57559268 512.79908984 296.46327913 516.05859375 298.3515625 C519.84676867 300.54398608 523.64899176 302.70606746 527.47265625 304.8359375 C528.27823975 305.29121826 529.08382324 305.74649902 529.91381836 306.21557617 C531.38310045 307.04558724 532.85884153 307.86431213 534.34204102 308.66918945 C536.2578125 309.76171875 536.2578125 309.76171875 539.0625 311.8125 C539.0625 313.1325 539.0625 314.4525 539.0625 315.8125 C537.3828125 317.296875 537.3828125 317.296875 535.1875 318.5625 C534.46820312 318.99046875 533.74890625 319.4184375 533.0078125 319.859375 C531.0625 320.8125 531.0625 320.8125 529.0625 320.8125 C529.0625 321.4725 529.0625 322.1325 529.0625 322.8125 C523.08689024 326.95884146 523.08689024 326.95884146 518.5625 326.3125 C508.69886364 322.08522727 508.69886364 322.08522727 507.0625 318.8125 C504.88938162 317.78618997 504.88938162 317.78618997 502.3125 316.875 C498.62938099 315.46444378 495.41598456 313.89709851 492.0625 311.8125 C490.399672 311.09520165 488.73584165 310.37991723 487.0625 309.6875 C484.78385714 308.69059375 482.58808819 307.57241702 480.375 306.4375 C474.73379182 303.57778122 468.92428858 301.17937339 463.0625 298.8125 C463.0625 298.1525 463.0625 297.4925 463.0625 296.8125 C462.45664062 296.65394531 461.85078125 296.49539063 461.2265625 296.33203125 C455.81163834 294.82418314 450.98407811 292.92154861 446.0078125 290.32421875 C442.33679195 288.4400212 438.61164649 286.68703054 434.875 284.9375 C434.15078857 284.59734863 433.42657715 284.25719727 432.68041992 283.90673828 C429.06159764 282.20917728 425.4382075 280.52201909 421.80859375 278.84765625 C420.79865356 278.38045166 420.79865356 278.38045166 419.76831055 277.90380859 C417.92480262 277.05189668 416.079641 276.2035659 414.234375 275.35546875 C411.0625 273.8125 411.0625 273.8125 408.42578125 272.2265625 C406.14750221 270.86336083 403.98446461 269.92063917 401.5 269 C396.62240146 267.10075809 392.01126123 264.83504287 387.3515625 262.45703125 C383.07998733 260.32124366 378.74999392 258.32241997 374.40161133 256.34838867 C371.32043935 254.93323574 368.34032344 253.43000316 365.4140625 251.72265625 C362.69073148 250.17054801 360.17471121 248.95619648 357.25 247.875 C352.00646045 245.84421917 347.05819958 243.38415873 342.0625 240.8125 C336.45612875 237.96308492 330.85056547 235.27778715 325.0625 232.8125 C321.28669871 230.95772042 317.53842392 229.05586373 313.79296875 227.140625 C307.75285363 224.0703921 301.72493259 221.19179557 295.39453125 218.7578125 C292.16615169 217.44915613 289.1033384 215.87125064 286.00390625 214.28515625 C282.3465091 212.45402912 278.64432333 210.72829649 274.9375 209 C268.40207546 205.9481934 261.93000297 202.78935048 255.50341797 199.5144043 C251.41907429 197.44427959 247.27441236 195.60564164 243.0625 193.8125 C241.45066173 193.01532728 239.84565619 192.20408882 238.25 191.375 C233.95086705 189.19580703 229.5885998 187.3447284 225.09375 185.609375 C223.0625 184.8125 223.0625 184.8125 221.0625 183.8125 C221.0625 183.1525 221.0625 182.4925 221.0625 181.8125 C220.04736328 181.66554688 220.04736328 181.66554688 219.01171875 181.515625 C215.395048 180.65337237 212.20590671 179.16871467 208.875 177.5625 C208.21371094 177.24893555 207.55242187 176.93537109 206.87109375 176.61230469 C202.27758718 174.425027 197.726007 172.1584871 193.1875 169.859375 C191.34115506 168.9497786 189.45432182 168.12328078 187.5625 167.3125 C182.09957626 164.97124697 176.83377773 162.23908309 171.55078125 159.51953125 C167.52674595 157.46645201 163.53128323 155.55745761 159.3125 153.9375 C152.67331606 151.36141286 146.39678456 148.04783434 140.0625 144.8125 C137.99142746 143.77357962 135.91792937 142.73972649 133.84375 141.70703125 C132.61041482 141.08765898 131.38149786 140.45943947 130.15625 139.82421875 C126.49874581 137.94466798 122.836256 136.29825119 119 134.8125 C116.03536225 133.65732912 113.28746057 132.45388801 110.5625 130.8125 C107.96680955 129.25027889 105.39925758 128.12628409 102.5625 127.0625 C97.27509061 125.03323432 92.42291723 122.38159959 87.46435547 119.67163086 C84.26228622 117.93687091 81.12926508 116.32273425 77.6875 115.125 C74.72797972 114.05344955 72.3866407 112.93075471 69.6875 111.375 C66.6421741 109.62666128 63.6555755 108.18852142 60.375 106.9375 C55.66816696 105.1271796 51.21601302 102.94458001 46.72338867 100.65844727 C42.08575384 98.30527012 37.40169581 96.07038098 32.6875 93.875 C27.82980555 91.61272878 23.01124264 89.29912792 18.23974609 86.86010742 C10.44006538 82.87331851 2.50076673 79.3361455 -5.58105469 75.95727539 C-10.81255255 73.76376155 -15.89129892 71.40568666 -20.9375 68.8125 C-20.9375 68.1525 -20.9375 67.4925 -20.9375 66.8125 C-21.66582031 66.69519531 -22.39414062 66.57789063 -23.14453125 66.45703125 C-25.97272145 65.80437197 -28.07269185 64.86263724 -30.625 63.5 C-34.91559394 61.27785657 -39.25165825 59.45633242 -43.7578125 57.72265625 C-45.9375 56.8125 -45.9375 56.8125 -48.625 55.125 C-50.96068264 53.59225535 -50.96068264 53.59225535 -54.125 53.5 C-59.49556836 52.53153685 -63.42553811 49.78113488 -67.9375 46.8125 C-66.54281481 43.4480017 -65.13724308 41.97717518 -62.0625 40.0625 C-61.25941406 39.55074219 -60.45632813 39.03898437 -59.62890625 38.51171875 C-58.74074219 37.95097656 -57.85257812 37.39023437 -56.9375 36.8125 C-54.95459906 35.50564851 -52.97557513 34.19289979 -51 32.875 C-49.99324219 32.20597656 -48.98648437 31.53695313 -47.94921875 30.84765625 C-44.21386478 28.32350655 -40.54834165 25.70838521 -36.8984375 23.0625 C-34.9375 21.8125 -34.9375 21.8125 -32.9375 21.8125 C-32.9375 21.1525 -32.9375 20.4925 -32.9375 19.8125 C-30.8203125 18.3046875 -30.8203125 18.3046875 -28.0625 16.6875 C-27.15757812 16.14867187 -26.25265625 15.60984375 -25.3203125 15.0546875 C-22.9375 13.8125 -22.9375 13.8125 -20.9375 13.8125 C-20.6075 12.8225 -20.2775 11.8325 -19.9375 10.8125 C-17.8984375 9.3828125 -17.8984375 9.3828125 -15.3125 7.9375 C-12.05701162 6.08451874 -9.0594284 4.20051831 -6.125 1.875 C-2.9375 -0.1875 -2.9375 -0.1875 0 0 Z " fill="#EE175D" transform="translate(417.9375,350.1875)"/>
<path d="M0 0 C0.75667969 0.45761719 1.51335937 0.91523437 2.29296875 1.38671875 C2.91816406 1.64710938 3.54335937 1.9075 4.1875 2.17578125 C9.98868049 4.704198 15.63157959 7.52186689 21.26879883 10.39306641 C25.46292624 12.51753418 29.70308588 14.4821676 34.00732422 16.37304688 C37.82003163 18.06396347 41.58734754 19.84911446 45.35546875 21.63671875 C46.17112305 22.0229541 46.98677734 22.40918945 47.82714844 22.80712891 C53.91140849 25.70051683 59.95077931 28.67614029 65.95336914 31.73535156 C70.01020839 33.79227929 74.10019717 35.63149008 78.29296875 37.38671875 C84.24450603 39.90073019 89.89460534 42.73779532 95.51953125 45.921875 C98.0934139 47.28132006 100.69977719 48.44358638 103.38330078 49.56762695 C107.69827851 51.41840045 111.91424637 53.49464821 116.15234375 55.51367188 C119.03207191 56.87870431 121.8887295 58.22625737 124.8515625 59.40234375 C128.24001053 60.76856599 131.4734975 62.42545335 134.73046875 64.07421875 C135.42841553 64.42508545 136.1263623 64.77595215 136.84545898 65.13745117 C139.66198081 66.55351717 142.47619161 67.97413646 145.29003906 69.39550781 C146.55045433 70.03181527 147.81126689 70.66733649 149.07250977 71.30200195 C150.75241722 72.14736138 152.43094221 72.99546644 154.109375 73.84375 C157.46205182 75.46866699 160.86565066 76.92700918 164.29296875 78.38671875 C165.63387634 79.03801672 166.96889206 79.7018515 168.29296875 80.38671875 C175.10289164 83.83081768 182.20448944 86.57699959 189.29296875 89.38671875 C189.29296875 90.04671875 189.29296875 90.70671875 189.29296875 91.38671875 C190.24171875 91.61359375 191.19046875 91.84046875 192.16796875 92.07421875 C196.28843501 93.24320415 199.90279706 95.13952208 203.6953125 97.1015625 C206.15317097 98.31755564 208.60900646 99.34253017 211.16796875 100.32421875 C214.8857997 101.76170308 218.38209117 103.42210677 221.91796875 105.26171875 C226.61667538 107.66542728 231.34011124 109.59771499 236.29296875 111.38671875 C242.20148203 113.52602005 247.77233877 115.97746089 253.35546875 118.8828125 C256.52360639 120.50479786 259.73802292 121.9818619 262.98046875 123.44921875 C266.78826396 125.18499174 270.47620966 126.99144807 274.10546875 129.07421875 C277.43240445 130.98052862 280.72364016 132.37195132 284.33203125 133.6484375 C290.96894141 136.14719451 297.13536779 139.9088145 303.29296875 143.38671875 C303.29296875 144.04671875 303.29296875 144.70671875 303.29296875 145.38671875 C301.74609375 146.61328125 301.74609375 146.61328125 299.54296875 148.01171875 C298.72183594 148.54152344 297.90070312 149.07132813 297.0546875 149.6171875 C296.14332031 150.20113281 295.23195313 150.78507813 294.29296875 151.38671875 C292.31089954 152.69483136 290.33182939 154.00749723 288.35546875 155.32421875 C287.34871094 155.99324219 286.34195313 156.66226563 285.3046875 157.3515625 C281.56933353 159.8757122 277.9038104 162.49083354 274.25390625 165.13671875 C272.29296875 166.38671875 272.29296875 166.38671875 270.29296875 166.38671875 C270.29296875 167.04671875 270.29296875 167.70671875 270.29296875 168.38671875 C266.19019973 168.68240971 263.97066727 167.964639 260.46875 165.8515625 C259.53627441 165.29734619 258.60379883 164.74312988 257.64306641 164.17211914 C256.64065918 163.56231201 255.63825195 162.95250488 254.60546875 162.32421875 C252.43278309 161.02912314 250.25958871 159.73488066 248.0859375 158.44140625 C246.40250244 157.43352051 246.40250244 157.43352051 244.68505859 156.40527344 C239.29469496 153.19759196 233.85658626 150.07414518 228.41796875 146.94921875 C226.23295447 145.69030972 224.04805928 144.43119398 221.86328125 143.171875 C220.23567871 142.23432373 220.23567871 142.23432373 218.57519531 141.27783203 C213.14636933 138.14991727 207.71977594 135.01813427 202.29296875 131.88671875 C200.12631292 130.63669996 197.95964625 129.38669997 195.79296875 128.13671875 C163.29296875 109.38671875 163.29296875 109.38671875 130.79296875 90.63671875 C129.72030762 90.01788818 128.64764648 89.39905762 127.54248047 88.76147461 C125.37739804 87.51236357 123.21235893 86.26317746 121.04736328 85.01391602 C115.60681169 81.87469566 110.16549659 78.73681312 104.72265625 75.6015625 C94.27090258 69.57924306 83.83030901 63.5394555 73.41796875 57.44921875 C64.95835585 52.50715485 56.48327451 47.59247418 47.98553467 42.71627808 C46.74388426 42.00330559 45.50286347 41.28923533 44.26251221 40.57400513 C42.53103528 39.57604971 40.79681754 38.58285433 39.0625 37.58984375 C38.06839111 37.01911133 37.07428223 36.44837891 36.05004883 35.86035156 C34.68529419 35.13090332 34.68529419 35.13090332 33.29296875 34.38671875 C32.46651855 33.93337158 31.64006836 33.48002441 30.78857422 33.01293945 C27.18765444 32.10936293 25.74072251 33.28714309 22.59375 35.1640625 C21.4804834 35.81511963 20.3672168 36.46617676 19.22021484 37.13696289 C18.01516741 37.86582988 16.81025562 38.59492115 15.60546875 39.32421875 C14.3495487 40.06620056 13.09253195 40.80632891 11.83447266 41.54467773 C9.24375614 43.06790594 6.65869129 44.60010791 4.07763672 46.13964844 C-1.52182922 49.47367616 -7.18007136 52.70530457 -12.83203125 55.94921875 C-14.97828467 57.1880746 -17.12411764 58.42765913 -19.26953125 59.66796875 C-23.60111632 62.17101365 -27.93447728 64.67093648 -32.26953125 67.16796875 C-42.72416076 73.19111614 -53.16751567 79.2319432 -63.58203125 85.32421875 C-72.85202902 90.74593053 -82.16534877 96.0887679 -91.4954834 101.40594482 C-100.61985965 106.60717004 -109.70835899 111.86699753 -118.77392578 117.17016602 C-129.2978775 123.32438617 -139.86083262 129.41041871 -150.42480469 135.49560547 C-155.85363067 138.62352023 -161.28022406 141.75530323 -166.70703125 144.88671875 C-168.87368708 146.13673754 -171.04035375 147.38673753 -173.20703125 148.63671875 C-174.27953125 149.25546875 -175.35203125 149.87421875 -176.45703125 150.51171875 C-368.20703126 261.13671875 -368.20703126 261.13671875 -371.45874023 263.01269531 C-373.61972113 264.25942131 -375.78069123 265.50616602 -377.94165039 266.75292969 C-383.44521976 269.92817758 -388.94899157 273.1030737 -394.453125 276.27734375 C-395.56365234 276.91800781 -396.67417969 277.55867188 -397.81835938 278.21875 C-400.01047966 279.48279118 -402.20317474 280.74583615 -404.39648438 282.0078125 C-409.44468814 284.91463579 -414.48177455 287.83703147 -419.4921875 290.80859375 C-420.377854 291.33098633 -421.26352051 291.85337891 -422.17602539 292.39160156 C-423.82112703 293.36339692 -425.46248009 294.3415762 -427.09936523 295.32714844 C-428.93407058 296.40786811 -430.81643789 297.40704764 -432.70703125 298.38671875 C-433.36703125 298.05671875 -434.02703125 297.72671875 -434.70703125 297.38671875 C-424.19469544 289.61382638 -413.40593672 282.26253552 -402.59765625 274.91015625 C-391.9945001 267.69562773 -381.42852596 260.43232159 -370.90771484 253.09814453 C-363.48662008 247.92509662 -356.04215218 242.78748579 -348.58105469 237.67236328 C-346.66620363 236.3587096 -344.7527972 235.04297778 -342.83984375 233.7265625 C-337.32663958 229.93272118 -331.81305393 226.13960416 -326.28515625 222.3671875 C-316.51071187 215.69570835 -306.77612057 208.96982415 -297.06665039 202.20410156 C-290.14200693 197.38015326 -283.19751889 192.58634808 -276.23828125 187.8125 C-273.01164756 185.59853556 -269.79597024 183.36908101 -266.58203125 181.13671875 C-260.85468434 177.16566418 -255.0946778 173.24382498 -249.33203125 169.32421875 C-240.61931976 163.39616698 -231.95740299 157.39877535 -223.31494141 151.36889648 C-216.80673012 146.83338706 -210.26813706 142.34531239 -203.70703125 137.88671875 C-195.06090123 132.0107684 -186.46591372 126.06472446 -177.890625 120.0859375 C-172.50878664 116.33406929 -167.11848344 112.59573906 -161.70703125 108.88671875 C-155.18618162 104.41654741 -148.69455118 99.90510413 -142.20703125 95.38671875 C-131.3876744 87.8534552 -120.54533458 80.35639299 -109.64453125 72.94140625 C-99.0253292 65.7170629 -88.44393636 58.44306436 -77.90771484 51.09814453 C-70.48662008 45.92509662 -63.04215218 40.78748579 -55.58105469 35.67236328 C-53.01052522 33.90889166 -50.44273585 32.14144874 -47.87475586 30.37426758 C-42.93343725 26.97425535 -37.98928069 23.57845124 -33.0390625 20.19140625 C-32.2442749 19.64734131 -31.4494873 19.10327637 -30.63061523 18.54272461 C-29.02371523 17.44474911 -27.41516862 16.34917931 -25.80493164 15.25610352 C-21.86539881 12.57696331 -17.96439251 9.86269988 -14.12109375 7.046875 C-13.39728516 6.52480469 -12.67347656 6.00273438 -11.92773438 5.46484375 C-10.56391176 4.4785191 -9.21032296 3.47783395 -7.86914062 2.4609375 C-3.37089429 -0.76368024 -3.37089429 -0.76368024 0 0 Z " fill="#EE185C" transform="translate(1443.70703125,591.61328125)"/>
<path d="M0 0 C0 9.57 0 19.14 0 29 C-0.33 29 -0.66 29 -1 29 C-1.67245837 25.41772843 -2.33695539 21.8340249 -3 18.25 C-3.19078125 17.23421875 -3.3815625 16.2184375 -3.578125 15.171875 C-3.84882812 13.70234375 -3.84882812 13.70234375 -4.125 12.203125 C-4.29257812 11.30239258 -4.46015625 10.40166016 -4.6328125 9.47363281 C-5 7 -5 7 -5 3 C-1.67857143 0 -1.67857143 0 0 0 Z " fill="#302F2C" transform="translate(851,1011)"/>
<path d="M0 0 C1.67688238 3.16590696 2.3107361 5.53602519 2.5625 9.125 C2.78049065 12.69798773 2.78049065 12.69798773 4 16 C4.01619227 17.74257981 3.96497633 19.48603427 3.87890625 21.2265625 C3.83056641 22.2578125 3.78222656 23.2890625 3.73242188 24.3515625 C3.67634766 25.43179687 3.62027344 26.51203125 3.5625 27.625 C3.51029297 28.71296875 3.45808594 29.8009375 3.40429688 30.921875 C3.27437225 33.6148581 3.13939838 36.30749336 3 39 C2.67 39 2.34 39 2 39 C1.65903054 34.75057743 1.32866136 30.5003908 1 26.25 C0.90460937 25.06277344 0.80921875 23.87554688 0.7109375 22.65234375 C0.13190272 15.083532 -0.12563177 7.59025297 0 0 Z " fill="#562837" transform="translate(655,1088)"/>
<path d="M0 0 C0.66 0.33 1.32 0.66 2 1 C-1.78226742 6.11980796 -5.61437574 8.93658694 -11.1875 11.9375 C-12.27321289 12.55334961 -12.27321289 12.55334961 -13.38085938 13.18164062 C-15.21565622 14.19376577 -17.10481614 15.10604535 -19 16 C-19.66 15.67 -20.32 15.34 -21 15 C-14.05611112 9.91749578 -7.06910642 4.90697192 0 0 Z " fill="#E11F57" transform="translate(1030,874)"/>
<path d="M0 0 C4.12331739 8.24663479 3.5003835 17.32219844 1 26 C0.67 26 0.34 26 0 26 C0 17.42 0 8.84 0 0 Z " fill="#F12C53" transform="translate(649,1016)"/>
<path d="M0 0 C0.33 0.99 0.66 1.98 1 3 C-4.2734375 6.22265625 -4.2734375 6.22265625 -6 7 C-6.66 6.67 -7.32 6.34 -8 6 C-5.36 4.02 -2.72 2.04 0 0 Z " fill="#D42451" transform="translate(1017,883)"/>
</svg>
